<?xml version="1.0" encoding="UTF-8" standalone="no"?>
<!DOCTYPE svg PUBLIC "-//W3C//DTD SVG 1.1//EN"
 "http://www.w3.org/Graphics/SVG/1.1/DTD/svg11.dtd">
<!-- Generated by graphviz version 2.38.0 (20140413.2041)
 -->
<!-- Title: G Pages: 1 -->
<svg width="1701pt" height="1718pt"
 viewBox="0.00 0.00 1701.20 1718.30" xmlns="http://www.w3.org/2000/svg" xmlns:xlink="http://www.w3.org/1999/xlink">
<g id="graph0" class="graph" transform="scale(1 1) rotate(0) translate(21.6 1696.7)">
<title>G</title>
<polygon fill="#111111" stroke="none" points="-21.6,21.6 -21.6,-1696.7 1679.6,-1696.7 1679.6,21.6 -21.6,21.6"/>
<!-- client/articles/articlesSlice.js -->
<g id="node1" class="node"><title>client/articles/articlesSlice.js</title>
<path fill="none" stroke="#c6c5fe" d="M1341.83,-1526.6C1341.83,-1526.6 1164.17,-1526.6 1164.17,-1526.6 1160.33,-1526.6 1156.5,-1522.76 1156.5,-1518.93 1156.5,-1518.93 1156.5,-1511.26 1156.5,-1511.26 1156.5,-1507.43 1160.33,-1503.6 1164.17,-1503.6 1164.17,-1503.6 1341.83,-1503.6 1341.83,-1503.6 1345.67,-1503.6 1349.5,-1507.43 1349.5,-1511.26 1349.5,-1511.26 1349.5,-1518.93 1349.5,-1518.93 1349.5,-1522.76 1345.67,-1526.6 1341.83,-1526.6"/>
<text text-anchor="middle" x="1253" y="-1511.4" font-family="Arial" font-size="14.00" fill="#c6c5fe">client/articles/articlesSlice.js</text>
</g>
<!-- client/lib/utils.js -->
<g id="node2" class="node"><title>client/lib/utils.js</title>
<path fill="none" stroke="#c6c5fe" d="M1495.33,-978.597C1495.33,-978.597 1400.67,-978.597 1400.67,-978.597 1396.83,-978.597 1393,-974.763 1393,-970.93 1393,-970.93 1393,-963.263 1393,-963.263 1393,-959.43 1396.83,-955.597 1400.67,-955.597 1400.67,-955.597 1495.33,-955.597 1495.33,-955.597 1499.17,-955.597 1503,-959.43 1503,-963.263 1503,-963.263 1503,-970.93 1503,-970.93 1503,-974.763 1499.17,-978.597 1495.33,-978.597"/>
<text text-anchor="middle" x="1448" y="-963.397" font-family="Arial" font-size="14.00" fill="#c6c5fe">client/lib/utils.js</text>
</g>
<!-- client/articles/articlesSlice.js&#45;&gt;client/lib/utils.js -->
<g id="edge1" class="edge"><title>client/articles/articlesSlice.js&#45;&gt;client/lib/utils.js</title>
<path fill="none" stroke="#757575" d="M1337.57,-1503.39C1344.82,-1499.72 1351.49,-1495.05 1357,-1489.1 1426.22,-1414.37 1443.03,-1078.1 1446.31,-988.881"/>
<polygon fill="#757575" stroke="#757575" points="1449.81,-988.945 1446.66,-978.829 1442.81,-988.702 1449.81,-988.945"/>
</g>
<!-- lib/sharedUtils.js -->
<g id="node21" class="node"><title>lib/sharedUtils.js</title>
<path fill="none" stroke="#cfffac" d="M1650.33,-804.597C1650.33,-804.597 1546.67,-804.597 1546.67,-804.597 1542.83,-804.597 1539,-800.763 1539,-796.93 1539,-796.93 1539,-789.263 1539,-789.263 1539,-785.43 1542.83,-781.597 1546.67,-781.597 1546.67,-781.597 1650.33,-781.597 1650.33,-781.597 1654.17,-781.597 1658,-785.43 1658,-789.263 1658,-789.263 1658,-796.93 1658,-796.93 1658,-800.763 1654.17,-804.597 1650.33,-804.597"/>
<text text-anchor="middle" x="1598.5" y="-789.397" font-family="Arial" font-size="14.00" fill="#cfffac">lib/sharedUtils.js</text>
</g>
<!-- client/lib/utils.js&#45;&gt;lib/sharedUtils.js -->
<g id="edge29" class="edge"><title>client/lib/utils.js&#45;&gt;lib/sharedUtils.js</title>
<path fill="none" stroke="#757575" d="M1458.97,-955.41C1484.02,-926.064 1549.76,-849.029 1580.81,-812.652"/>
<polygon fill="#757575" stroke="#757575" points="1583.74,-814.611 1587.57,-804.733 1578.42,-810.067 1583.74,-814.611"/>
</g>
<!-- client/articles/edit.js -->
<g id="node3" class="node"><title>client/articles/edit.js</title>
<path fill="none" stroke="#c6c5fe" d="M806.333,-1411.6C806.333,-1411.6 681.667,-1411.6 681.667,-1411.6 677.833,-1411.6 674,-1407.76 674,-1403.93 674,-1403.93 674,-1396.26 674,-1396.26 674,-1392.43 677.833,-1388.6 681.667,-1388.6 681.667,-1388.6 806.333,-1388.6 806.333,-1388.6 810.167,-1388.6 814,-1392.43 814,-1396.26 814,-1396.26 814,-1403.93 814,-1403.93 814,-1407.76 810.167,-1411.6 806.333,-1411.6"/>
<text text-anchor="middle" x="744" y="-1396.4" font-family="Arial" font-size="14.00" fill="#c6c5fe">client/articles/edit.js</text>
</g>
<!-- client/articles/edit.js&#45;&gt;client/lib/utils.js -->
<g id="edge4" class="edge"><title>client/articles/edit.js&#45;&gt;client/lib/utils.js</title>
<path fill="none" stroke="#757575" d="M790.049,-1411.65C904.511,-1437.99 1207.97,-1488.42 1357,-1327.1 1403.69,-1276.55 1435.12,-1059.71 1444.25,-989.284"/>
<polygon fill="#757575" stroke="#757575" points="1447.78,-989.299 1445.57,-978.937 1440.84,-988.415 1447.78,-989.299"/>
</g>
<!-- client/articles/form.js -->
<g id="node4" class="node"><title>client/articles/form.js</title>
<path fill="none" stroke="#c6c5fe" d="M1066.33,-1370.6C1066.33,-1370.6 935.667,-1370.6 935.667,-1370.6 931.833,-1370.6 928,-1366.76 928,-1362.93 928,-1362.93 928,-1355.26 928,-1355.26 928,-1351.43 931.833,-1347.6 935.667,-1347.6 935.667,-1347.6 1066.33,-1347.6 1066.33,-1347.6 1070.17,-1347.6 1074,-1351.43 1074,-1355.26 1074,-1355.26 1074,-1362.93 1074,-1362.93 1074,-1366.76 1070.17,-1370.6 1066.33,-1370.6"/>
<text text-anchor="middle" x="1001" y="-1355.4" font-family="Arial" font-size="14.00" fill="#c6c5fe">client/articles/form.js</text>
</g>
<!-- client/articles/edit.js&#45;&gt;client/articles/form.js -->
<g id="edge2" class="edge"><title>client/articles/edit.js&#45;&gt;client/articles/form.js</title>
<path fill="none" stroke="#757575" d="M814.007,-1389C846.088,-1383.84 884.476,-1377.67 918.025,-1372.28"/>
<polygon fill="#757575" stroke="#757575" points="918.951,-1375.67 928.268,-1370.63 917.84,-1368.76 918.951,-1375.67"/>
</g>
<!-- client/lib/context.js -->
<g id="node5" class="node"><title>client/lib/context.js</title>
<path fill="none" stroke="#cfffac" d="M1310.83,-1058.6C1310.83,-1058.6 1195.17,-1058.6 1195.17,-1058.6 1191.33,-1058.6 1187.5,-1054.76 1187.5,-1050.93 1187.5,-1050.93 1187.5,-1043.26 1187.5,-1043.26 1187.5,-1039.43 1191.33,-1035.6 1195.17,-1035.6 1195.17,-1035.6 1310.83,-1035.6 1310.83,-1035.6 1314.67,-1035.6 1318.5,-1039.43 1318.5,-1043.26 1318.5,-1043.26 1318.5,-1050.93 1318.5,-1050.93 1318.5,-1054.76 1314.67,-1058.6 1310.83,-1058.6"/>
<text text-anchor="middle" x="1253" y="-1043.4" font-family="Arial" font-size="14.00" fill="#cfffac">client/lib/context.js</text>
</g>
<!-- client/articles/edit.js&#45;&gt;client/lib/context.js -->
<g id="edge3" class="edge"><title>client/articles/edit.js&#45;&gt;client/lib/context.js</title>
<path fill="none" stroke="#757575" d="M814.386,-1405.91C908.622,-1412.21 1070.25,-1416.85 1113,-1379.1 1179.71,-1320.17 1113.01,-1263.5 1149,-1182.1 1169.54,-1135.63 1209.11,-1090.54 1232.77,-1066.03"/>
<polygon fill="#757575" stroke="#757575" points="1235.34,-1068.41 1239.85,-1058.83 1230.35,-1063.51 1235.34,-1068.41"/>
</g>
<!-- client/articles/form.js&#45;&gt;client/lib/utils.js -->
<g id="edge7" class="edge"><title>client/articles/form.js&#45;&gt;client/lib/utils.js</title>
<path fill="none" stroke="#757575" d="M1074.27,-1360.99C1153.97,-1359.05 1280.97,-1343.43 1357,-1270.1 1438.11,-1191.86 1447,-1044.17 1447.35,-988.797"/>
<polygon fill="#757575" stroke="#757575" points="1450.85,-988.709 1447.32,-978.719 1443.85,-988.729 1450.85,-988.709"/>
</g>
<!-- client/articles/form.js&#45;&gt;client/lib/context.js -->
<g id="edge5" class="edge"><title>client/articles/form.js&#45;&gt;client/lib/context.js</title>
<path fill="none" stroke="#757575" d="M1074.23,-1354.19C1088.6,-1350.14 1102.48,-1343.57 1113,-1333.1 1161.88,-1284.41 1119.43,-1244.43 1149,-1182.1 1170.89,-1135.95 1210.32,-1090.43 1233.53,-1065.83"/>
<polygon fill="#757575" stroke="#757575" points="1236.07,-1068.24 1240.45,-1058.6 1231.01,-1063.4 1236.07,-1068.24"/>
</g>
<!-- client/lib/routes.js -->
<g id="node6" class="node"><title>client/lib/routes.js</title>
<path fill="none" stroke="#c6c5fe" d="M1307.83,-978.597C1307.83,-978.597 1198.17,-978.597 1198.17,-978.597 1194.33,-978.597 1190.5,-974.763 1190.5,-970.93 1190.5,-970.93 1190.5,-963.263 1190.5,-963.263 1190.5,-959.43 1194.33,-955.597 1198.17,-955.597 1198.17,-955.597 1307.83,-955.597 1307.83,-955.597 1311.67,-955.597 1315.5,-959.43 1315.5,-963.263 1315.5,-963.263 1315.5,-970.93 1315.5,-970.93 1315.5,-974.763 1311.67,-978.597 1307.83,-978.597"/>
<text text-anchor="middle" x="1253" y="-963.397" font-family="Arial" font-size="14.00" fill="#c6c5fe">client/lib/routes.js</text>
</g>
<!-- client/articles/form.js&#45;&gt;client/lib/routes.js -->
<g id="edge6" class="edge"><title>client/articles/form.js&#45;&gt;client/lib/routes.js</title>
<path fill="none" stroke="#757575" d="M1042.53,-1347.57C1066.94,-1338.46 1096.41,-1323.18 1113,-1299.1 1182.42,-1198.31 1080.82,-1127.73 1149,-1026.1 1162.44,-1006.06 1185.13,-992.012 1205.79,-982.663"/>
<polygon fill="#757575" stroke="#757575" points="1207.28,-985.835 1215.11,-978.694 1204.54,-979.395 1207.28,-985.835"/>
</g>
<!-- client/lib/routes.js&#45;&gt;client/lib/utils.js -->
<g id="edge28" class="edge"><title>client/lib/routes.js&#45;&gt;client/lib/utils.js</title>
<path fill="none" stroke="#757575" d="M1315.6,-967.097C1337.03,-967.097 1361.11,-967.097 1382.74,-967.097"/>
<polygon fill="#757575" stroke="#757575" points="1382.82,-970.597 1392.82,-967.097 1382.82,-963.597 1382.82,-970.597"/>
</g>
<!-- client/articles/index.js -->
<g id="node7" class="node"><title>client/articles/index.js</title>
<path fill="none" stroke="#c6c5fe" d="M1068.33,-1290.6C1068.33,-1290.6 933.667,-1290.6 933.667,-1290.6 929.833,-1290.6 926,-1286.76 926,-1282.93 926,-1282.93 926,-1275.26 926,-1275.26 926,-1271.43 929.833,-1267.6 933.667,-1267.6 933.667,-1267.6 1068.33,-1267.6 1068.33,-1267.6 1072.17,-1267.6 1076,-1271.43 1076,-1275.26 1076,-1275.26 1076,-1282.93 1076,-1282.93 1076,-1286.76 1072.17,-1290.6 1068.33,-1290.6"/>
<text text-anchor="middle" x="1001" y="-1275.4" font-family="Arial" font-size="14.00" fill="#c6c5fe">client/articles/index.js</text>
</g>
<!-- client/articles/index.js&#45;&gt;client/lib/utils.js -->
<g id="edge11" class="edge"><title>client/articles/index.js&#45;&gt;client/lib/utils.js</title>
<path fill="none" stroke="#757575" d="M1076.13,-1287.97C1154.8,-1293.15 1278.38,-1288.59 1357,-1223.1 1429.85,-1162.4 1443.78,-1038.9 1446.41,-988.868"/>
<polygon fill="#757575" stroke="#757575" points="1449.91,-988.976 1446.83,-978.837 1442.91,-988.681 1449.91,-988.976"/>
</g>
<!-- client/articles/index.js&#45;&gt;client/lib/context.js -->
<g id="edge9" class="edge"><title>client/articles/index.js&#45;&gt;client/lib/context.js</title>
<path fill="none" stroke="#757575" d="M1076.25,-1271.16C1089.43,-1267.23 1102.34,-1261.47 1113,-1253.1 1140.82,-1231.24 1130.19,-1212.06 1149,-1182.1 1176.18,-1138.8 1213.79,-1092.22 1235.24,-1066.67"/>
<polygon fill="#757575" stroke="#757575" points="1238.07,-1068.74 1241.85,-1058.84 1232.72,-1064.22 1238.07,-1068.74"/>
</g>
<!-- client/articles/index.js&#45;&gt;client/lib/routes.js -->
<g id="edge10" class="edge"><title>client/articles/index.js&#45;&gt;client/lib/routes.js</title>
<path fill="none" stroke="#757575" d="M1076.27,-1274.37C1090.09,-1270.25 1103.23,-1263.61 1113,-1253.1 1182.55,-1178.28 1090.99,-1110.18 1149,-1026.1 1162.8,-1006.09 1185.75,-991.997 1206.48,-982.613"/>
<polygon fill="#757575" stroke="#757575" points="1207.99,-985.774 1215.81,-978.628 1205.24,-979.337 1207.99,-985.774"/>
</g>
<!-- client/common/generalSlice.js -->
<g id="node8" class="node"><title>client/common/generalSlice.js</title>
<path fill="none" stroke="#c6c5fe" d="M1348.33,-1214.6C1348.33,-1214.6 1157.67,-1214.6 1157.67,-1214.6 1153.83,-1214.6 1150,-1210.76 1150,-1206.93 1150,-1206.93 1150,-1199.26 1150,-1199.26 1150,-1195.43 1153.83,-1191.6 1157.67,-1191.6 1157.67,-1191.6 1348.33,-1191.6 1348.33,-1191.6 1352.17,-1191.6 1356,-1195.43 1356,-1199.26 1356,-1199.26 1356,-1206.93 1356,-1206.93 1356,-1210.76 1352.17,-1214.6 1348.33,-1214.6"/>
<text text-anchor="middle" x="1253" y="-1199.4" font-family="Arial" font-size="14.00" fill="#c6c5fe">client/common/generalSlice.js</text>
</g>
<!-- client/articles/index.js&#45;&gt;client/common/generalSlice.js -->
<g id="edge8" class="edge"><title>client/articles/index.js&#45;&gt;client/common/generalSlice.js</title>
<path fill="none" stroke="#757575" d="M1056.81,-1267.58C1074.83,-1263.44 1094.88,-1258.46 1113,-1253.1 1147.39,-1242.92 1185.68,-1228.94 1213.35,-1218.36"/>
<polygon fill="#757575" stroke="#757575" points="1214.97,-1221.48 1223.04,-1214.62 1212.45,-1214.95 1214.97,-1221.48"/>
</g>
<!-- client/common/generalSlice.js&#45;&gt;client/lib/utils.js -->
<g id="edge20" class="edge"><title>client/common/generalSlice.js&#45;&gt;client/lib/utils.js</title>
<path fill="none" stroke="#757575" d="M1332.6,-1191.53C1341.45,-1187.91 1349.85,-1183.2 1357,-1177.1 1415.71,-1126.98 1437.17,-1031.7 1444.08,-988.888"/>
<polygon fill="#757575" stroke="#757575" points="1447.58,-989.145 1445.61,-978.737 1440.66,-988.107 1447.58,-989.145"/>
</g>
<!-- client/articles/new.js -->
<g id="node9" class="node"><title>client/articles/new.js</title>
<path fill="none" stroke="#c6c5fe" d="M806.833,-1370.6C806.833,-1370.6 681.167,-1370.6 681.167,-1370.6 677.333,-1370.6 673.5,-1366.76 673.5,-1362.93 673.5,-1362.93 673.5,-1355.26 673.5,-1355.26 673.5,-1351.43 677.333,-1347.6 681.167,-1347.6 681.167,-1347.6 806.833,-1347.6 806.833,-1347.6 810.667,-1347.6 814.5,-1351.43 814.5,-1355.26 814.5,-1355.26 814.5,-1362.93 814.5,-1362.93 814.5,-1366.76 810.667,-1370.6 806.833,-1370.6"/>
<text text-anchor="middle" x="744" y="-1355.4" font-family="Arial" font-size="14.00" fill="#c6c5fe">client/articles/new.js</text>
</g>
<!-- client/articles/new.js&#45;&gt;client/articles/form.js -->
<g id="edge12" class="edge"><title>client/articles/new.js&#45;&gt;client/articles/form.js</title>
<path fill="none" stroke="#757575" d="M814.68,-1359.1C846.486,-1359.1 884.382,-1359.1 917.593,-1359.1"/>
<polygon fill="#757575" stroke="#757575" points="917.737,-1362.6 927.737,-1359.1 917.737,-1355.6 917.737,-1362.6"/>
</g>
<!-- client/articles/show.js -->
<g id="node10" class="node"><title>client/articles/show.js</title>
<path fill="none" stroke="#c6c5fe" d="M810.833,-1098.6C810.833,-1098.6 677.167,-1098.6 677.167,-1098.6 673.333,-1098.6 669.5,-1094.76 669.5,-1090.93 669.5,-1090.93 669.5,-1083.26 669.5,-1083.26 669.5,-1079.43 673.333,-1075.6 677.167,-1075.6 677.167,-1075.6 810.833,-1075.6 810.833,-1075.6 814.667,-1075.6 818.5,-1079.43 818.5,-1083.26 818.5,-1083.26 818.5,-1090.93 818.5,-1090.93 818.5,-1094.76 814.667,-1098.6 810.833,-1098.6"/>
<text text-anchor="middle" x="744" y="-1083.4" font-family="Arial" font-size="14.00" fill="#c6c5fe">client/articles/show.js</text>
</g>
<!-- client/articles/show.js&#45;&gt;client/lib/utils.js -->
<g id="edge16" class="edge"><title>client/articles/show.js&#45;&gt;client/lib/utils.js</title>
<path fill="none" stroke="#757575" d="M780.061,-1098.66C879.192,-1129.08 1166.64,-1201.44 1357,-1087.1 1396.37,-1063.45 1424.2,-1015.44 1437.72,-987.853"/>
<polygon fill="#757575" stroke="#757575" points="1440.93,-989.233 1442.04,-978.696 1434.61,-986.244 1440.93,-989.233"/>
</g>
<!-- client/articles/show.js&#45;&gt;client/lib/context.js -->
<g id="edge15" class="edge"><title>client/articles/show.js&#45;&gt;client/lib/context.js</title>
<path fill="none" stroke="#757575" d="M803.017,-1098.62C876.084,-1111.15 1005.12,-1126.7 1113,-1105.1 1152.68,-1097.15 1195.18,-1077.62 1222.59,-1063.41"/>
<polygon fill="#757575" stroke="#757575" points="1224.42,-1066.4 1231.63,-1058.63 1221.15,-1060.21 1224.42,-1066.4"/>
</g>
<!-- client/articles/styles.module.scss -->
<g id="node11" class="node"><title>client/articles/styles.module.scss</title>
<path fill="none" stroke="#cfffac" d="M1105.33,-1096.6C1105.33,-1096.6 896.667,-1096.6 896.667,-1096.6 892.833,-1096.6 889,-1092.76 889,-1088.93 889,-1088.93 889,-1081.26 889,-1081.26 889,-1077.43 892.833,-1073.6 896.667,-1073.6 896.667,-1073.6 1105.33,-1073.6 1105.33,-1073.6 1109.17,-1073.6 1113,-1077.43 1113,-1081.26 1113,-1081.26 1113,-1088.93 1113,-1088.93 1113,-1092.76 1109.17,-1096.6 1105.33,-1096.6"/>
<text text-anchor="middle" x="1001" y="-1081.4" font-family="Arial" font-size="14.00" fill="#cfffac">client/articles/styles.module.scss</text>
</g>
<!-- client/articles/show.js&#45;&gt;client/articles/styles.module.scss -->
<g id="edge13" class="edge"><title>client/articles/show.js&#45;&gt;client/articles/styles.module.scss</title>
<path fill="none" stroke="#757575" d="M818.757,-1086.52C837.591,-1086.37 858.341,-1086.21 878.87,-1086.05"/>
<polygon fill="#757575" stroke="#757575" points="878.949,-1089.55 888.921,-1085.97 878.894,-1082.55 878.949,-1089.55"/>
</g>
<!-- client/comments/form.js -->
<g id="node12" class="node"><title>client/comments/form.js</title>
<path fill="none" stroke="#c6c5fe" d="M1076.83,-1055.6C1076.83,-1055.6 925.167,-1055.6 925.167,-1055.6 921.333,-1055.6 917.5,-1051.76 917.5,-1047.93 917.5,-1047.93 917.5,-1040.26 917.5,-1040.26 917.5,-1036.43 921.333,-1032.6 925.167,-1032.6 925.167,-1032.6 1076.83,-1032.6 1076.83,-1032.6 1080.67,-1032.6 1084.5,-1036.43 1084.5,-1040.26 1084.5,-1040.26 1084.5,-1047.93 1084.5,-1047.93 1084.5,-1051.76 1080.67,-1055.6 1076.83,-1055.6"/>
<text text-anchor="middle" x="1001" y="-1040.4" font-family="Arial" font-size="14.00" fill="#c6c5fe">client/comments/form.js</text>
</g>
<!-- client/articles/show.js&#45;&gt;client/comments/form.js -->
<g id="edge14" class="edge"><title>client/articles/show.js&#45;&gt;client/comments/form.js</title>
<path fill="none" stroke="#757575" d="M813.335,-1075.57C846.635,-1069.96 886.853,-1063.18 921.418,-1057.35"/>
<polygon fill="#757575" stroke="#757575" points="922.197,-1060.77 931.476,-1055.65 921.033,-1053.86 922.197,-1060.77"/>
</g>
<!-- client/comments/form.js&#45;&gt;client/lib/utils.js -->
<g id="edge19" class="edge"><title>client/comments/form.js&#45;&gt;client/lib/utils.js</title>
<path fill="none" stroke="#757575" d="M1067.92,-1055.61C1156.05,-1069.77 1307,-1089.37 1357,-1067.1 1393.54,-1050.82 1421.47,-1011.57 1435.96,-987.362"/>
<polygon fill="#757575" stroke="#757575" points="1439.04,-989.02 1441,-978.608 1432.98,-985.523 1439.04,-989.02"/>
</g>
<!-- client/comments/form.js&#45;&gt;client/lib/context.js -->
<g id="edge17" class="edge"><title>client/comments/form.js&#45;&gt;client/lib/context.js</title>
<path fill="none" stroke="#757575" d="M1084.55,-1045.09C1114.45,-1045.45 1148.02,-1045.85 1177.22,-1046.2"/>
<polygon fill="#757575" stroke="#757575" points="1177.3,-1049.7 1187.35,-1046.32 1177.39,-1042.7 1177.3,-1049.7"/>
</g>
<!-- client/comments/form.js&#45;&gt;client/lib/routes.js -->
<g id="edge18" class="edge"><title>client/comments/form.js&#45;&gt;client/lib/routes.js</title>
<path fill="none" stroke="#757575" d="M1074.14,-1032.58C1087.18,-1029.89 1100.58,-1026.74 1113,-1023.1 1149.85,-1012.3 1190.41,-995.338 1218.16,-982.909"/>
<polygon fill="#757575" stroke="#757575" points="1219.75,-986.033 1227.41,-978.719 1216.86,-979.656 1219.75,-986.033"/>
</g>
<!-- client/common/home.js -->
<g id="node13" class="node"><title>client/common/home.js</title>
<path fill="none" stroke="#cfffac" d="M817.833,-1057.6C817.833,-1057.6 670.167,-1057.6 670.167,-1057.6 666.333,-1057.6 662.5,-1053.76 662.5,-1049.93 662.5,-1049.93 662.5,-1042.26 662.5,-1042.26 662.5,-1038.43 666.333,-1034.6 670.167,-1034.6 670.167,-1034.6 817.833,-1034.6 817.833,-1034.6 821.667,-1034.6 825.5,-1038.43 825.5,-1042.26 825.5,-1042.26 825.5,-1049.93 825.5,-1049.93 825.5,-1053.76 821.667,-1057.6 817.833,-1057.6"/>
<text text-anchor="middle" x="744" y="-1042.4" font-family="Arial" font-size="14.00" fill="#cfffac">client/common/home.js</text>
</g>
<!-- client/common/session.js -->
<g id="node14" class="node"><title>client/common/session.js</title>
<path fill="none" stroke="#c6c5fe" d="M1081.33,-1014.6C1081.33,-1014.6 920.667,-1014.6 920.667,-1014.6 916.833,-1014.6 913,-1010.76 913,-1006.93 913,-1006.93 913,-999.263 913,-999.263 913,-995.43 916.833,-991.597 920.667,-991.597 920.667,-991.597 1081.33,-991.597 1081.33,-991.597 1085.17,-991.597 1089,-995.43 1089,-999.263 1089,-999.263 1089,-1006.93 1089,-1006.93 1089,-1010.76 1085.17,-1014.6 1081.33,-1014.6"/>
<text text-anchor="middle" x="1001" y="-999.397" font-family="Arial" font-size="14.00" fill="#c6c5fe">client/common/session.js</text>
</g>
<!-- client/common/session.js&#45;&gt;client/lib/utils.js -->
<g id="edge23" class="edge"><title>client/common/session.js&#45;&gt;client/lib/utils.js</title>
<path fill="none" stroke="#757575" d="M1089.18,-1003.37C1161.27,-1002.6 1266.18,-999.142 1357,-987.097 1368.54,-985.567 1380.78,-983.293 1392.4,-980.821"/>
<polygon fill="#757575" stroke="#757575" points="1393.4,-984.183 1402.41,-978.611 1391.89,-977.348 1393.4,-984.183"/>
</g>
<!-- client/common/session.js&#45;&gt;client/lib/context.js -->
<g id="edge21" class="edge"><title>client/common/session.js&#45;&gt;client/lib/context.js</title>
<path fill="none" stroke="#757575" d="M1067.36,-1014.6C1101.07,-1020.53 1142.33,-1027.8 1177.3,-1033.95"/>
<polygon fill="#757575" stroke="#757575" points="1177,-1037.45 1187.46,-1035.74 1178.21,-1030.56 1177,-1037.45"/>
</g>
<!-- client/common/session.js&#45;&gt;client/lib/routes.js -->
<g id="edge22" class="edge"><title>client/common/session.js&#45;&gt;client/lib/routes.js</title>
<path fill="none" stroke="#757575" d="M1082.13,-991.557C1113.57,-987.03 1149.37,-981.875 1179.98,-977.468"/>
<polygon fill="#757575" stroke="#757575" points="1180.74,-980.894 1190.14,-976.004 1179.75,-973.965 1180.74,-980.894"/>
</g>
<!-- client/common/sessionSlice.js -->
<g id="node15" class="node"><title>client/common/sessionSlice.js</title>
<path fill="none" stroke="#c6c5fe" d="M1349.33,-937.597C1349.33,-937.597 1156.67,-937.597 1156.67,-937.597 1152.83,-937.597 1149,-933.763 1149,-929.93 1149,-929.93 1149,-922.263 1149,-922.263 1149,-918.43 1152.83,-914.597 1156.67,-914.597 1156.67,-914.597 1349.33,-914.597 1349.33,-914.597 1353.17,-914.597 1357,-918.43 1357,-922.263 1357,-922.263 1357,-929.93 1357,-929.93 1357,-933.763 1353.17,-937.597 1349.33,-937.597"/>
<text text-anchor="middle" x="1253" y="-922.397" font-family="Arial" font-size="14.00" fill="#c6c5fe">client/common/sessionSlice.js</text>
</g>
<!-- client/common/sessionSlice.js&#45;&gt;client/lib/utils.js -->
<g id="edge24" class="edge"><title>client/common/sessionSlice.js&#45;&gt;client/lib/utils.js</title>
<path fill="none" stroke="#757575" d="M1315.35,-937.618C1329.08,-940.304 1343.55,-943.223 1357,-946.097 1367.34,-948.307 1378.33,-950.772 1388.94,-953.213"/>
<polygon fill="#757575" stroke="#757575" points="1388.43,-956.688 1398.97,-955.538 1390.01,-949.869 1388.43,-956.688"/>
</g>
<!-- client/common/structure.js -->
<g id="node16" class="node"><title>client/common/structure.js</title>
<path fill="none" stroke="#cfffac" d="M827.333,-939.597C827.333,-939.597 660.667,-939.597 660.667,-939.597 656.833,-939.597 653,-935.763 653,-931.93 653,-931.93 653,-924.263 653,-924.263 653,-920.43 656.833,-916.597 660.667,-916.597 660.667,-916.597 827.333,-916.597 827.333,-916.597 831.167,-916.597 835,-920.43 835,-924.263 835,-924.263 835,-931.93 835,-931.93 835,-935.763 831.167,-939.597 827.333,-939.597"/>
<text text-anchor="middle" x="744" y="-924.397" font-family="Arial" font-size="14.00" fill="#cfffac">client/common/structure.js</text>
</g>
<!-- client/css/fontawesome.min.css -->
<g id="node17" class="node"><title>client/css/fontawesome.min.css</title>
<path fill="none" stroke="#cfffac" d="M845.333,-1646.6C845.333,-1646.6 642.667,-1646.6 642.667,-1646.6 638.833,-1646.6 635,-1642.76 635,-1638.93 635,-1638.93 635,-1631.26 635,-1631.26 635,-1627.43 638.833,-1623.6 642.667,-1623.6 642.667,-1623.6 845.333,-1623.6 845.333,-1623.6 849.167,-1623.6 853,-1627.43 853,-1631.26 853,-1631.26 853,-1638.93 853,-1638.93 853,-1642.76 849.167,-1646.6 845.333,-1646.6"/>
<text text-anchor="middle" x="744" y="-1631.4" font-family="Arial" font-size="14.00" fill="#cfffac">client/css/fontawesome.min.css</text>
</g>
<!-- client/css/index.scss -->
<g id="node18" class="node"><title>client/css/index.scss</title>
<path fill="none" stroke="#c6c5fe" d="M589.833,-1605.6C589.833,-1605.6 458.167,-1605.6 458.167,-1605.6 454.333,-1605.6 450.5,-1601.76 450.5,-1597.93 450.5,-1597.93 450.5,-1590.26 450.5,-1590.26 450.5,-1586.43 454.333,-1582.6 458.167,-1582.6 458.167,-1582.6 589.833,-1582.6 589.833,-1582.6 593.667,-1582.6 597.5,-1586.43 597.5,-1590.26 597.5,-1590.26 597.5,-1597.93 597.5,-1597.93 597.5,-1601.76 593.667,-1605.6 589.833,-1605.6"/>
<text text-anchor="middle" x="524" y="-1590.4" font-family="Arial" font-size="14.00" fill="#c6c5fe">client/css/index.scss</text>
</g>
<!-- client/css/index.scss&#45;&gt;client/css/fontawesome.min.css -->
<g id="edge25" class="edge"><title>client/css/index.scss&#45;&gt;client/css/fontawesome.min.css</title>
<path fill="none" stroke="#757575" d="M586.305,-1605.63C612.888,-1610.63 644.184,-1616.51 671.79,-1621.7"/>
<polygon fill="#757575" stroke="#757575" points="671.303,-1625.17 681.778,-1623.58 672.597,-1618.29 671.303,-1625.17"/>
</g>
<!-- client/css/scssHelpers.scss -->
<g id="node19" class="node"><title>client/css/scssHelpers.scss</title>
<path fill="none" stroke="#cfffac" d="M832.833,-1605.6C832.833,-1605.6 655.167,-1605.6 655.167,-1605.6 651.333,-1605.6 647.5,-1601.76 647.5,-1597.93 647.5,-1597.93 647.5,-1590.26 647.5,-1590.26 647.5,-1586.43 651.333,-1582.6 655.167,-1582.6 655.167,-1582.6 832.833,-1582.6 832.833,-1582.6 836.667,-1582.6 840.5,-1586.43 840.5,-1590.26 840.5,-1590.26 840.5,-1597.93 840.5,-1597.93 840.5,-1601.76 836.667,-1605.6 832.833,-1605.6"/>
<text text-anchor="middle" x="744" y="-1590.4" font-family="Arial" font-size="14.00" fill="#cfffac">client/css/scssHelpers.scss</text>
</g>
<!-- client/css/index.scss&#45;&gt;client/css/scssHelpers.scss -->
<g id="edge26" class="edge"><title>client/css/index.scss&#45;&gt;client/css/scssHelpers.scss</title>
<path fill="none" stroke="#757575" d="M597.591,-1594.1C610.323,-1594.1 623.805,-1594.1 637.221,-1594.1"/>
<polygon fill="#757575" stroke="#757575" points="637.454,-1597.6 647.454,-1594.1 637.454,-1590.6 637.454,-1597.6"/>
</g>
<!-- client/css/solid.min.css -->
<g id="node20" class="node"><title>client/css/solid.min.css</title>
<path fill="none" stroke="#cfffac" d="M817.333,-1564.6C817.333,-1564.6 670.667,-1564.6 670.667,-1564.6 666.833,-1564.6 663,-1560.76 663,-1556.93 663,-1556.93 663,-1549.26 663,-1549.26 663,-1545.43 666.833,-1541.6 670.667,-1541.6 670.667,-1541.6 817.333,-1541.6 817.333,-1541.6 821.167,-1541.6 825,-1545.43 825,-1549.26 825,-1549.26 825,-1556.93 825,-1556.93 825,-1560.76 821.167,-1564.6 817.333,-1564.6"/>
<text text-anchor="middle" x="744" y="-1549.4" font-family="Arial" font-size="14.00" fill="#cfffac">client/css/solid.min.css</text>
</g>
<!-- client/css/index.scss&#45;&gt;client/css/solid.min.css -->
<g id="edge27" class="edge"><title>client/css/index.scss&#45;&gt;client/css/solid.min.css</title>
<path fill="none" stroke="#757575" d="M584.933,-1582.59C601.176,-1579.49 618.759,-1576.15 635,-1573.1 646.493,-1570.94 658.678,-1568.66 670.563,-1566.45"/>
<polygon fill="#757575" stroke="#757575" points="671.261,-1569.88 680.454,-1564.62 669.984,-1563 671.261,-1569.88"/>
</g>
<!-- client/main/app.js -->
<g id="node22" class="node"><title>client/main/app.js</title>
<path fill="none" stroke="#c6c5fe" d="M578.833,-1017.6C578.833,-1017.6 469.167,-1017.6 469.167,-1017.6 465.333,-1017.6 461.5,-1013.76 461.5,-1009.93 461.5,-1009.93 461.5,-1002.26 461.5,-1002.26 461.5,-998.43 465.333,-994.597 469.167,-994.597 469.167,-994.597 578.833,-994.597 578.833,-994.597 582.667,-994.597 586.5,-998.43 586.5,-1002.26 586.5,-1002.26 586.5,-1009.93 586.5,-1009.93 586.5,-1013.76 582.667,-1017.6 578.833,-1017.6"/>
<text text-anchor="middle" x="524" y="-1002.4" font-family="Arial" font-size="14.00" fill="#c6c5fe">client/main/app.js</text>
</g>
<!-- client/main/app.js&#45;&gt;client/articles/articlesSlice.js -->
<g id="edge30" class="edge"><title>client/main/app.js&#45;&gt;client/articles/articlesSlice.js</title>
<path fill="none" stroke="#757575" d="M525.79,-1017.63C530.65,-1084.89 558.841,-1425.66 635,-1489.1 673.202,-1520.92 979.975,-1520.27 1146.06,-1517.51"/>
<polygon fill="#757575" stroke="#757575" points="1146.37,-1521 1156.31,-1517.33 1146.25,-1514 1146.37,-1521"/>
</g>
<!-- client/main/app.js&#45;&gt;client/lib/utils.js -->
<g id="edge42" class="edge"><title>client/main/app.js&#45;&gt;client/lib/utils.js</title>
<path fill="none" stroke="#757575" d="M526.361,-1017.88C533.735,-1079.56 570.946,-1364.56 635,-1420.1 715.412,-1489.82 1007.27,-1462.28 1113,-1450.1 1223.63,-1437.35 1279.1,-1472.68 1357,-1393.1 1414.58,-1334.28 1439.33,-1067.22 1445.43,-988.804"/>
<polygon fill="#757575" stroke="#757575" points="1448.94,-988.887 1446.2,-978.651 1441.96,-988.359 1448.94,-988.887"/>
</g>
<!-- client/main/app.js&#45;&gt;client/articles/edit.js -->
<g id="edge31" class="edge"><title>client/main/app.js&#45;&gt;client/articles/edit.js</title>
<path fill="none" stroke="#757575" d="M524.471,-1017.7C522.813,-1069.01 523.37,-1277.57 635,-1379.1 643.222,-1386.57 653.287,-1391.74 663.931,-1395.25"/>
<polygon fill="#757575" stroke="#757575" points="663.258,-1398.7 673.832,-1398.04 665.153,-1391.96 663.258,-1398.7"/>
</g>
<!-- client/main/app.js&#45;&gt;client/lib/context.js -->
<g id="edge40" class="edge"><title>client/main/app.js&#45;&gt;client/lib/context.js</title>
<path fill="none" stroke="#757575" d="M525.257,-1017.77C526.945,-1062.61 539.664,-1224.67 635,-1292.1 678.366,-1322.77 1070.27,-1330.65 1113,-1299.1 1156.76,-1266.77 1124.11,-1230.48 1149,-1182.1 1172.26,-1136.88 1210.94,-1091.3 1233.7,-1066.38"/>
<polygon fill="#757575" stroke="#757575" points="1236.54,-1068.47 1240.76,-1058.75 1231.4,-1063.71 1236.54,-1068.47"/>
</g>
<!-- client/main/app.js&#45;&gt;client/lib/routes.js -->
<g id="edge41" class="edge"><title>client/main/app.js&#45;&gt;client/lib/routes.js</title>
<path fill="none" stroke="#757575" d="M532.984,-1017.79C549.128,-1040.25 588.132,-1088.84 635,-1107.1 659.21,-1116.53 1100.92,-1112.93 1113,-1105.1 1145.37,-1084.1 1123.01,-1054.61 1149,-1026.1 1166.21,-1007.21 1190.92,-992.776 1211.82,-982.913"/>
<polygon fill="#757575" stroke="#757575" points="1213.45,-986.018 1221.11,-978.704 1210.56,-979.641 1213.45,-986.018"/>
</g>
<!-- client/main/app.js&#45;&gt;client/articles/index.js -->
<g id="edge32" class="edge"><title>client/main/app.js&#45;&gt;client/articles/index.js</title>
<path fill="none" stroke="#757575" d="M526.105,-1017.76C530.647,-1058.43 551.785,-1194.75 635,-1253.1 725.231,-1316.36 860.763,-1305.83 938.779,-1292.46"/>
<polygon fill="#757575" stroke="#757575" points="939.7,-1295.85 948.93,-1290.65 938.47,-1288.96 939.7,-1295.85"/>
</g>
<!-- client/main/app.js&#45;&gt;client/common/generalSlice.js -->
<g id="edge35" class="edge"><title>client/main/app.js&#45;&gt;client/common/generalSlice.js</title>
<path fill="none" stroke="#757575" d="M533.828,-1017.73C550.834,-1039.21 590.417,-1084.95 635,-1107.1 797.476,-1187.79 1011.18,-1204.01 1139.72,-1205.56"/>
<polygon fill="#757575" stroke="#757575" points="1139.94,-1209.07 1149.97,-1205.66 1140,-1202.07 1139.94,-1209.07"/>
</g>
<!-- client/main/app.js&#45;&gt;client/articles/new.js -->
<g id="edge33" class="edge"><title>client/main/app.js&#45;&gt;client/articles/new.js</title>
<path fill="none" stroke="#757575" d="M525.131,-1017.75C526.324,-1064.96 537.361,-1243.72 635,-1333.1 643.168,-1340.57 653.106,-1346.01 663.609,-1349.93"/>
<polygon fill="#757575" stroke="#757575" points="662.785,-1353.35 673.378,-1353.13 664.963,-1346.69 662.785,-1353.35"/>
</g>
<!-- client/main/app.js&#45;&gt;client/articles/show.js -->
<g id="edge34" class="edge"><title>client/main/app.js&#45;&gt;client/articles/show.js</title>
<path fill="none" stroke="#757575" d="M542.122,-1017.62C563.116,-1031.22 600.207,-1053.57 635,-1066.1 642.815,-1068.91 651.091,-1071.38 659.446,-1073.53"/>
<polygon fill="#757575" stroke="#757575" points="658.724,-1076.95 669.267,-1075.91 660.375,-1070.15 658.724,-1076.95"/>
</g>
<!-- client/main/app.js&#45;&gt;client/common/home.js -->
<g id="edge36" class="edge"><title>client/main/app.js&#45;&gt;client/common/home.js</title>
<path fill="none" stroke="#757575" d="M586.596,-1017.4C612.498,-1022.15 642.835,-1027.72 669.861,-1032.68"/>
<polygon fill="#757575" stroke="#757575" points="669.574,-1036.18 680.041,-1034.54 670.837,-1029.3 669.574,-1036.18"/>
</g>
<!-- client/main/app.js&#45;&gt;client/common/session.js -->
<g id="edge37" class="edge"><title>client/main/app.js&#45;&gt;client/common/session.js</title>
<path fill="none" stroke="#757575" d="M586.611,-1005.71C666.778,-1005.2 807.774,-1004.31 902.523,-1003.71"/>
<polygon fill="#757575" stroke="#757575" points="902.713,-1007.21 912.691,-1003.65 902.669,-1000.21 902.713,-1007.21"/>
</g>
<!-- client/main/app.js&#45;&gt;client/common/sessionSlice.js -->
<g id="edge38" class="edge"><title>client/main/app.js&#45;&gt;client/common/sessionSlice.js</title>
<path fill="none" stroke="#757575" d="M586.67,-999.31C708.871,-985.863 983.361,-955.658 1138.89,-938.543"/>
<polygon fill="#757575" stroke="#757575" points="1139.4,-942.008 1148.96,-937.435 1138.64,-935.05 1139.4,-942.008"/>
</g>
<!-- client/main/app.js&#45;&gt;client/common/structure.js -->
<g id="edge39" class="edge"><title>client/main/app.js&#45;&gt;client/common/structure.js</title>
<path fill="none" stroke="#757575" d="M546.357,-994.384C568.125,-982.837 603.125,-965.333 635,-954.097 647.953,-949.53 662.057,-945.493 675.669,-942.043"/>
<polygon fill="#757575" stroke="#757575" points="676.594,-945.42 685.471,-939.635 674.925,-938.622 676.594,-945.42"/>
</g>
<!-- client/tags/edit.js -->
<g id="node23" class="node"><title>client/tags/edit.js</title>
<path fill="none" stroke="#c6c5fe" d="M797.333,-898.597C797.333,-898.597 690.667,-898.597 690.667,-898.597 686.833,-898.597 683,-894.763 683,-890.93 683,-890.93 683,-883.263 683,-883.263 683,-879.43 686.833,-875.597 690.667,-875.597 690.667,-875.597 797.333,-875.597 797.333,-875.597 801.167,-875.597 805,-879.43 805,-883.263 805,-883.263 805,-890.93 805,-890.93 805,-894.763 801.167,-898.597 797.333,-898.597"/>
<text text-anchor="middle" x="744" y="-883.397" font-family="Arial" font-size="14.00" fill="#c6c5fe">client/tags/edit.js</text>
</g>
<!-- client/main/app.js&#45;&gt;client/tags/edit.js -->
<g id="edge43" class="edge"><title>client/main/app.js&#45;&gt;client/tags/edit.js</title>
<path fill="none" stroke="#757575" d="M534.16,-994.387C551.416,-973.223 590.984,-928.793 635,-907.097 646.721,-901.319 659.907,-897.201 672.933,-894.269"/>
<polygon fill="#757575" stroke="#757575" points="673.736,-897.677 682.835,-892.25 672.338,-890.818 673.736,-897.677"/>
</g>
<!-- client/tags/index.js -->
<g id="node24" class="node"><title>client/tags/index.js</title>
<path fill="none" stroke="#c6c5fe" d="M1059.33,-817.597C1059.33,-817.597 942.667,-817.597 942.667,-817.597 938.833,-817.597 935,-813.763 935,-809.93 935,-809.93 935,-802.263 935,-802.263 935,-798.43 938.833,-794.597 942.667,-794.597 942.667,-794.597 1059.33,-794.597 1059.33,-794.597 1063.17,-794.597 1067,-798.43 1067,-802.263 1067,-802.263 1067,-809.93 1067,-809.93 1067,-813.763 1063.17,-817.597 1059.33,-817.597"/>
<text text-anchor="middle" x="1001" y="-802.397" font-family="Arial" font-size="14.00" fill="#c6c5fe">client/tags/index.js</text>
</g>
<!-- client/main/app.js&#45;&gt;client/tags/index.js -->
<g id="edge44" class="edge"><title>client/main/app.js&#45;&gt;client/tags/index.js</title>
<path fill="none" stroke="#757575" d="M527.957,-994.5C537.154,-961.122 568.702,-864.689 635,-825.097 728.717,-769.129 861.3,-779.8 938.196,-792.822"/>
<polygon fill="#757575" stroke="#757575" points="937.753,-796.298 948.208,-794.585 938.967,-789.404 937.753,-796.298"/>
</g>
<!-- client/tags/new.js -->
<g id="node25" class="node"><title>client/tags/new.js</title>
<path fill="none" stroke="#c6c5fe" d="M797.833,-857.597C797.833,-857.597 690.167,-857.597 690.167,-857.597 686.333,-857.597 682.5,-853.763 682.5,-849.93 682.5,-849.93 682.5,-842.263 682.5,-842.263 682.5,-838.43 686.333,-834.597 690.167,-834.597 690.167,-834.597 797.833,-834.597 797.833,-834.597 801.667,-834.597 805.5,-838.43 805.5,-842.263 805.5,-842.263 805.5,-849.93 805.5,-849.93 805.5,-853.763 801.667,-857.597 797.833,-857.597"/>
<text text-anchor="middle" x="744" y="-842.397" font-family="Arial" font-size="14.00" fill="#c6c5fe">client/tags/new.js</text>
</g>
<!-- client/main/app.js&#45;&gt;client/tags/new.js -->
<g id="edge45" class="edge"><title>client/main/app.js&#45;&gt;client/tags/new.js</title>
<path fill="none" stroke="#757575" d="M530.487,-994.35C543.972,-966.896 581.573,-898.411 635,-866.097 646.247,-859.294 659.267,-854.705 672.29,-851.63"/>
<polygon fill="#757575" stroke="#757575" points="673.144,-855.028 682.22,-849.563 671.717,-848.174 673.144,-855.028"/>
</g>
<!-- client/tags/tagsSlice.js -->
<g id="node26" class="node"><title>client/tags/tagsSlice.js</title>
<path fill="none" stroke="#c6c5fe" d="M1323.83,-778.597C1323.83,-778.597 1182.17,-778.597 1182.17,-778.597 1178.33,-778.597 1174.5,-774.763 1174.5,-770.93 1174.5,-770.93 1174.5,-763.263 1174.5,-763.263 1174.5,-759.43 1178.33,-755.597 1182.17,-755.597 1182.17,-755.597 1323.83,-755.597 1323.83,-755.597 1327.67,-755.597 1331.5,-759.43 1331.5,-763.263 1331.5,-763.263 1331.5,-770.93 1331.5,-770.93 1331.5,-774.763 1327.67,-778.597 1323.83,-778.597"/>
<text text-anchor="middle" x="1253" y="-763.397" font-family="Arial" font-size="14.00" fill="#c6c5fe">client/tags/tagsSlice.js</text>
</g>
<!-- client/main/app.js&#45;&gt;client/tags/tagsSlice.js -->
<g id="edge46" class="edge"><title>client/main/app.js&#45;&gt;client/tags/tagsSlice.js</title>
<path fill="none" stroke="#757575" d="M526.481,-994.455C532.104,-955.706 555.985,-830.681 635,-780.097 720.176,-725.568 1015.27,-744.394 1164.35,-758.038"/>
<polygon fill="#757575" stroke="#757575" points="1164.11,-761.531 1174.39,-758.969 1164.76,-754.561 1164.11,-761.531"/>
</g>
<!-- client/users/edit.js -->
<g id="node27" class="node"><title>client/users/edit.js</title>
<path fill="none" stroke="#c6c5fe" d="M801.333,-733.597C801.333,-733.597 686.667,-733.597 686.667,-733.597 682.833,-733.597 679,-729.763 679,-725.93 679,-725.93 679,-718.263 679,-718.263 679,-714.43 682.833,-710.597 686.667,-710.597 686.667,-710.597 801.333,-710.597 801.333,-710.597 805.167,-710.597 809,-714.43 809,-718.263 809,-718.263 809,-725.93 809,-725.93 809,-729.763 805.167,-733.597 801.333,-733.597"/>
<text text-anchor="middle" x="744" y="-718.397" font-family="Arial" font-size="14.00" fill="#c6c5fe">client/users/edit.js</text>
</g>
<!-- client/main/app.js&#45;&gt;client/users/edit.js -->
<g id="edge47" class="edge"><title>client/main/app.js&#45;&gt;client/users/edit.js</title>
<path fill="none" stroke="#757575" d="M526.484,-994.424C532.229,-954.226 556.727,-820.268 635,-752.097 644.823,-743.541 656.893,-737.409 669.363,-733.018"/>
<polygon fill="#757575" stroke="#757575" points="670.467,-736.339 678.946,-729.987 668.356,-729.665 670.467,-736.339"/>
</g>
<!-- client/users/index.js -->
<g id="node28" class="node"><title>client/users/index.js</title>
<path fill="none" stroke="#c6c5fe" d="M1063.33,-620.597C1063.33,-620.597 938.667,-620.597 938.667,-620.597 934.833,-620.597 931,-616.763 931,-612.93 931,-612.93 931,-605.263 931,-605.263 931,-601.43 934.833,-597.597 938.667,-597.597 938.667,-597.597 1063.33,-597.597 1063.33,-597.597 1067.17,-597.597 1071,-601.43 1071,-605.263 1071,-605.263 1071,-612.93 1071,-612.93 1071,-616.763 1067.17,-620.597 1063.33,-620.597"/>
<text text-anchor="middle" x="1001" y="-605.397" font-family="Arial" font-size="14.00" fill="#c6c5fe">client/users/index.js</text>
</g>
<!-- client/main/app.js&#45;&gt;client/users/index.js -->
<g id="edge48" class="edge"><title>client/main/app.js&#45;&gt;client/users/index.js</title>
<path fill="none" stroke="#757575" d="M524.491,-994.5C522.979,-944.155 524.252,-742.956 635,-651.097 717.158,-582.951 847.87,-585.95 928.553,-596.2"/>
<polygon fill="#757575" stroke="#757575" points="928.246,-599.69 938.623,-597.55 929.176,-592.752 928.246,-599.69"/>
</g>
<!-- client/users/new.js -->
<g id="node29" class="node"><title>client/users/new.js</title>
<path fill="none" stroke="#c6c5fe" d="M801.833,-683.597C801.833,-683.597 686.167,-683.597 686.167,-683.597 682.333,-683.597 678.5,-679.763 678.5,-675.93 678.5,-675.93 678.5,-668.263 678.5,-668.263 678.5,-664.43 682.333,-660.597 686.167,-660.597 686.167,-660.597 801.833,-660.597 801.833,-660.597 805.667,-660.597 809.5,-664.43 809.5,-668.263 809.5,-668.263 809.5,-675.93 809.5,-675.93 809.5,-679.763 805.667,-683.597 801.833,-683.597"/>
<text text-anchor="middle" x="744" y="-668.397" font-family="Arial" font-size="14.00" fill="#c6c5fe">client/users/new.js</text>
</g>
<!-- client/main/app.js&#45;&gt;client/users/new.js -->
<g id="edge49" class="edge"><title>client/main/app.js&#45;&gt;client/users/new.js</title>
<path fill="none" stroke="#757575" d="M525.524,-994.364C528.196,-949.172 544.049,-784.728 635,-701.097 644.416,-692.439 656.139,-686.316 668.358,-681.998"/>
<polygon fill="#757575" stroke="#757575" points="669.731,-685.235 678.229,-678.907 667.64,-678.555 669.731,-685.235"/>
</g>
<!-- client/users/usersSlice.js -->
<g id="node30" class="node"><title>client/users/usersSlice.js</title>
<path fill="none" stroke="#c6c5fe" d="M1331.83,-581.597C1331.83,-581.597 1174.17,-581.597 1174.17,-581.597 1170.33,-581.597 1166.5,-577.763 1166.5,-573.93 1166.5,-573.93 1166.5,-566.263 1166.5,-566.263 1166.5,-562.43 1170.33,-558.597 1174.17,-558.597 1174.17,-558.597 1331.83,-558.597 1331.83,-558.597 1335.67,-558.597 1339.5,-562.43 1339.5,-566.263 1339.5,-566.263 1339.5,-573.93 1339.5,-573.93 1339.5,-577.763 1335.67,-581.597 1331.83,-581.597"/>
<text text-anchor="middle" x="1253" y="-566.397" font-family="Arial" font-size="14.00" fill="#c6c5fe">client/users/usersSlice.js</text>
</g>
<!-- client/main/app.js&#45;&gt;client/users/usersSlice.js -->
<g id="edge50" class="edge"><title>client/main/app.js&#45;&gt;client/users/usersSlice.js</title>
<path fill="none" stroke="#757575" d="M526.205,-994.479C532.903,-932.387 567.693,-640.509 635,-587.097 674.722,-555.575 993.026,-561.373 1156.23,-566.536"/>
<polygon fill="#757575" stroke="#757575" points="1156.16,-570.036 1166.27,-566.859 1156.39,-563.04 1156.16,-570.036"/>
</g>
<!-- client/tags/edit.js&#45;&gt;client/lib/utils.js -->
<g id="edge55" class="edge"><title>client/tags/edit.js&#45;&gt;client/lib/utils.js</title>
<path fill="none" stroke="#757575" d="M805.04,-884.575C938.475,-879.663 1255.85,-871.99 1357,-905.097 1384.12,-913.973 1410.44,-933.817 1427.53,-948.68"/>
<polygon fill="#757575" stroke="#757575" points="1425.37,-951.438 1435.15,-955.506 1430.04,-946.225 1425.37,-951.438"/>
</g>
<!-- client/tags/edit.js&#45;&gt;client/lib/context.js -->
<g id="edge54" class="edge"><title>client/tags/edit.js&#45;&gt;client/lib/context.js</title>
<path fill="none" stroke="#757575" d="M805.2,-897.168C820.829,-900.076 837.597,-903.458 853,-907.097 970.046,-934.746 1000.41,-939.828 1113,-982.097 1150.93,-996.335 1192.84,-1016.59 1220.63,-1030.7"/>
<polygon fill="#757575" stroke="#757575" points="1219.34,-1033.97 1229.83,-1035.41 1222.53,-1027.74 1219.34,-1033.97"/>
</g>
<!-- client/tags/form.js -->
<g id="node32" class="node"><title>client/tags/form.js</title>
<path fill="none" stroke="#c6c5fe" d="M1057.33,-858.597C1057.33,-858.597 944.667,-858.597 944.667,-858.597 940.833,-858.597 937,-854.763 937,-850.93 937,-850.93 937,-843.263 937,-843.263 937,-839.43 940.833,-835.597 944.667,-835.597 944.667,-835.597 1057.33,-835.597 1057.33,-835.597 1061.17,-835.597 1065,-839.43 1065,-843.263 1065,-843.263 1065,-850.93 1065,-850.93 1065,-854.763 1061.17,-858.597 1057.33,-858.597"/>
<text text-anchor="middle" x="1001" y="-843.397" font-family="Arial" font-size="14.00" fill="#c6c5fe">client/tags/form.js</text>
</g>
<!-- client/tags/edit.js&#45;&gt;client/tags/form.js -->
<g id="edge56" class="edge"><title>client/tags/edit.js&#45;&gt;client/tags/form.js</title>
<path fill="none" stroke="#757575" d="M805.109,-877.668C841.468,-871.964 888.089,-864.651 926.615,-858.608"/>
<polygon fill="#757575" stroke="#757575" points="927.4,-862.028 936.737,-857.02 926.315,-855.112 927.4,-862.028"/>
</g>
<!-- client/tags/index.js&#45;&gt;client/lib/utils.js -->
<g id="edge62" class="edge"><title>client/tags/index.js&#45;&gt;client/lib/utils.js</title>
<path fill="none" stroke="#757575" d="M1063.91,-794.567C1138.78,-783.975 1266.05,-776.986 1357,-830.097 1401.6,-856.14 1428.2,-914.11 1439.9,-945.651"/>
<polygon fill="#757575" stroke="#757575" points="1436.66,-946.994 1443.3,-955.25 1443.26,-944.656 1436.66,-946.994"/>
</g>
<!-- client/tags/index.js&#45;&gt;client/lib/context.js -->
<g id="edge60" class="edge"><title>client/tags/index.js&#45;&gt;client/lib/context.js</title>
<path fill="none" stroke="#757575" d="M1067.18,-805.32C1083.95,-808.217 1100.71,-814.304 1113,-826.097 1165.92,-876.851 1105.7,-927.921 1149,-987.097 1163.73,-1007.23 1187.42,-1021.7 1208.37,-1031.39"/>
<polygon fill="#757575" stroke="#757575" points="1207.2,-1034.69 1217.77,-1035.5 1210.01,-1028.28 1207.2,-1034.69"/>
</g>
<!-- client/tags/index.js&#45;&gt;client/lib/routes.js -->
<g id="edge61" class="edge"><title>client/tags/index.js&#45;&gt;client/lib/routes.js</title>
<path fill="none" stroke="#757575" d="M1067.22,-806.005C1083.79,-808.945 1100.44,-814.882 1113,-826.097 1154.54,-863.179 1107.89,-908.542 1149,-946.097 1157.84,-954.174 1168.92,-959.49 1180.51,-962.93"/>
<polygon fill="#757575" stroke="#757575" points="1179.77,-966.354 1190.32,-965.398 1181.47,-959.565 1179.77,-966.354"/>
</g>
<!-- client/tags/new.js&#45;&gt;client/tags/form.js -->
<g id="edge63" class="edge"><title>client/tags/new.js&#45;&gt;client/tags/form.js</title>
<path fill="none" stroke="#757575" d="M805.755,-846.335C841.996,-846.477 888.257,-846.658 926.541,-846.808"/>
<polygon fill="#757575" stroke="#757575" points="926.587,-850.309 936.6,-846.848 926.614,-843.309 926.587,-850.309"/>
</g>
<!-- client/tags/tagsSlice.js&#45;&gt;client/lib/utils.js -->
<g id="edge64" class="edge"><title>client/tags/tagsSlice.js&#45;&gt;client/lib/utils.js</title>
<path fill="none" stroke="#757575" d="M1328.76,-778.66C1338.92,-782.45 1348.69,-787.465 1357,-794.097 1406.85,-833.893 1432.07,-908.813 1441.92,-945.604"/>
<polygon fill="#757575" stroke="#757575" points="1438.53,-946.488 1444.39,-955.314 1445.31,-944.76 1438.53,-946.488"/>
</g>
<!-- client/users/edit.js&#45;&gt;client/lib/utils.js -->
<g id="edge66" class="edge"><title>client/users/edit.js&#45;&gt;client/lib/utils.js</title>
<path fill="none" stroke="#757575" d="M809.03,-713.445C833.941,-710.483 862.754,-707.55 889,-706.097 993.219,-700.324 1275.4,-681.011 1357,-746.097 1420.74,-796.94 1439.67,-900.236 1445.01,-945.277"/>
<polygon fill="#757575" stroke="#757575" points="1441.55,-945.836 1446.1,-955.406 1448.51,-945.09 1441.55,-945.836"/>
</g>
<!-- client/users/edit.js&#45;&gt;client/lib/context.js -->
<g id="edge65" class="edge"><title>client/users/edit.js&#45;&gt;client/lib/context.js</title>
<path fill="none" stroke="#757575" d="M809.098,-712.917C891.323,-705.075 1032.86,-705.504 1113,-785.097 1177.7,-849.359 1096.77,-912.343 1149,-987.097 1163.18,-1007.4 1186.62,-1021.83 1207.55,-1031.44"/>
<polygon fill="#757575" stroke="#757575" points="1206.38,-1034.75 1216.95,-1035.53 1209.17,-1028.33 1206.38,-1034.75"/>
</g>
<!-- client/users/form.js -->
<g id="node33" class="node"><title>client/users/form.js</title>
<path fill="none" stroke="#c6c5fe" d="M1061.33,-661.597C1061.33,-661.597 940.667,-661.597 940.667,-661.597 936.833,-661.597 933,-657.763 933,-653.93 933,-653.93 933,-646.263 933,-646.263 933,-642.43 936.833,-638.597 940.667,-638.597 940.667,-638.597 1061.33,-638.597 1061.33,-638.597 1065.17,-638.597 1069,-642.43 1069,-646.263 1069,-646.263 1069,-653.93 1069,-653.93 1069,-657.763 1065.17,-661.597 1061.33,-661.597"/>
<text text-anchor="middle" x="1001" y="-646.397" font-family="Arial" font-size="14.00" fill="#c6c5fe">client/users/form.js</text>
</g>
<!-- client/users/edit.js&#45;&gt;client/users/form.js -->
<g id="edge67" class="edge"><title>client/users/edit.js&#45;&gt;client/users/form.js</title>
<path fill="none" stroke="#757575" d="M792.253,-710.587C811.319,-705.525 833.402,-699.13 853,-692.097 869.48,-686.182 872.403,-681.673 889,-676.097 902.643,-671.512 917.492,-667.435 931.761,-663.945"/>
<polygon fill="#757575" stroke="#757575" points="932.604,-667.342 941.524,-661.625 930.986,-660.532 932.604,-667.342"/>
</g>
<!-- client/users/index.js&#45;&gt;client/lib/utils.js -->
<g id="edge73" class="edge"><title>client/users/index.js&#45;&gt;client/lib/utils.js</title>
<path fill="none" stroke="#757575" d="M1071.32,-606.312C1162.22,-604.147 1315.08,-606.097 1357,-641.097 1404.83,-681.026 1435.21,-878.791 1444.2,-945.261"/>
<polygon fill="#757575" stroke="#757575" points="1440.76,-945.968 1445.55,-955.422 1447.7,-945.05 1440.76,-945.968"/>
</g>
<!-- client/users/index.js&#45;&gt;client/lib/context.js -->
<g id="edge71" class="edge"><title>client/users/index.js&#45;&gt;client/lib/context.js</title>
<path fill="none" stroke="#757575" d="M1071.02,-607.918C1086.79,-611.02 1102.1,-617.309 1113,-629.097 1167.29,-687.797 1105.73,-919.858 1149,-987.097 1162.21,-1007.62 1185.11,-1021.97 1205.96,-1031.48"/>
<polygon fill="#757575" stroke="#757575" points="1204.79,-1034.78 1215.36,-1035.51 1207.55,-1028.35 1204.79,-1034.78"/>
</g>
<!-- client/users/index.js&#45;&gt;client/lib/routes.js -->
<g id="edge72" class="edge"><title>client/users/index.js&#45;&gt;client/lib/routes.js</title>
<path fill="none" stroke="#757575" d="M1071.2,-608.072C1086.88,-611.192 1102.09,-617.45 1113,-629.097 1209.94,-732.575 1053.25,-841.517 1149,-946.097 1157.41,-955.284 1168.66,-961.064 1180.63,-964.603"/>
<polygon fill="#757575" stroke="#757575" points="1179.81,-968.003 1190.35,-966.981 1181.47,-961.204 1179.81,-968.003"/>
</g>
<!-- client/users/new.js&#45;&gt;client/users/form.js -->
<g id="edge74" class="edge"><title>client/users/new.js&#45;&gt;client/users/form.js</title>
<path fill="none" stroke="#757575" d="M809.677,-666.517C844.069,-663.549 886.592,-659.881 922.714,-656.764"/>
<polygon fill="#757575" stroke="#757575" points="923.059,-660.248 932.721,-655.901 922.457,-653.274 923.059,-660.248"/>
</g>
<!-- client/users/usersSlice.js&#45;&gt;client/lib/utils.js -->
<g id="edge75" class="edge"><title>client/users/usersSlice.js&#45;&gt;client/lib/utils.js</title>
<path fill="none" stroke="#757575" d="M1334.16,-581.6C1342.65,-585.455 1350.52,-590.503 1357,-597.097 1406.69,-647.681 1436.3,-873.307 1444.59,-945.09"/>
<polygon fill="#757575" stroke="#757575" points="1441.14,-945.696 1445.74,-955.239 1448.09,-944.91 1441.14,-945.696"/>
</g>
<!-- client/main/index.js -->
<g id="node31" class="node"><title>client/main/index.js</title>
<path fill="none" stroke="#c6c5fe" d="M405.333,-1605.6C405.333,-1605.6 285.667,-1605.6 285.667,-1605.6 281.833,-1605.6 278,-1601.76 278,-1597.93 278,-1597.93 278,-1590.26 278,-1590.26 278,-1586.43 281.833,-1582.6 285.667,-1582.6 285.667,-1582.6 405.333,-1582.6 405.333,-1582.6 409.167,-1582.6 413,-1586.43 413,-1590.26 413,-1590.26 413,-1597.93 413,-1597.93 413,-1601.76 409.167,-1605.6 405.333,-1605.6"/>
<text text-anchor="middle" x="345.5" y="-1590.4" font-family="Arial" font-size="14.00" fill="#c6c5fe">client/main/index.js</text>
</g>
<!-- client/main/index.js&#45;&gt;client/lib/utils.js -->
<g id="edge52" class="edge"><title>client/main/index.js&#45;&gt;client/lib/utils.js</title>
<path fill="none" stroke="#757575" d="M379.712,-1605.62C447.248,-1627.98 605.82,-1675.1 743,-1675.1 743,-1675.1 743,-1675.1 1002,-1675.1 1171.6,-1675.1 1250.86,-1667.39 1357,-1535.1 1426.58,-1448.38 1443.21,-1082.66 1446.36,-989.013"/>
<polygon fill="#757575" stroke="#757575" points="1449.87,-988.862 1446.69,-978.755 1442.87,-988.639 1449.87,-988.862"/>
</g>
<!-- client/main/index.js&#45;&gt;client/css/index.scss -->
<g id="edge51" class="edge"><title>client/main/index.js&#45;&gt;client/css/index.scss</title>
<path fill="none" stroke="#757575" d="M413.227,-1594.1C422.022,-1594.1 431.121,-1594.1 440.144,-1594.1"/>
<polygon fill="#757575" stroke="#757575" points="440.279,-1597.6 450.279,-1594.1 440.279,-1590.6 440.279,-1597.6"/>
</g>
<!-- client/main/index.js&#45;&gt;client/main/app.js -->
<g id="edge53" class="edge"><title>client/main/index.js&#45;&gt;client/main/app.js</title>
<path fill="none" stroke="#757575" d="M350.026,-1582.35C371.78,-1509.88 487.768,-1123.47 516.539,-1027.62"/>
<polygon fill="#757575" stroke="#757575" points="519.943,-1028.45 519.466,-1017.87 513.239,-1026.44 519.943,-1028.45"/>
</g>
<!-- client/tags/form.js&#45;&gt;client/lib/utils.js -->
<g id="edge59" class="edge"><title>client/tags/form.js&#45;&gt;client/lib/utils.js</title>
<path fill="none" stroke="#757575" d="M1065.08,-838.276C1138.86,-830.865 1262.87,-827.625 1357,-872.097 1391.48,-888.388 1419.44,-924.164 1434.61,-946.865"/>
<polygon fill="#757575" stroke="#757575" points="1431.76,-948.915 1440.13,-955.418 1437.64,-945.119 1431.76,-948.915"/>
</g>
<!-- client/tags/form.js&#45;&gt;client/lib/context.js -->
<g id="edge57" class="edge"><title>client/tags/form.js&#45;&gt;client/lib/context.js</title>
<path fill="none" stroke="#757575" d="M1032.68,-858.737C1057.07,-869.288 1090.68,-886.898 1113,-911.097 1138.34,-938.569 1123.72,-959.568 1149,-987.097 1166.6,-1006.26 1191.76,-1021.08 1212.81,-1031.19"/>
<polygon fill="#757575" stroke="#757575" points="1211.6,-1034.49 1222.15,-1035.5 1214.54,-1028.13 1211.6,-1034.49"/>
</g>
<!-- client/tags/form.js&#45;&gt;client/lib/routes.js -->
<g id="edge58" class="edge"><title>client/tags/form.js&#45;&gt;client/lib/routes.js</title>
<path fill="none" stroke="#757575" d="M1026.02,-858.736C1049.25,-870.493 1084.96,-889.906 1113,-911.097 1130.8,-924.551 1129.27,-935.669 1149,-946.097 1158.7,-951.222 1169.52,-955.098 1180.4,-958.029"/>
<polygon fill="#757575" stroke="#757575" points="1179.84,-961.495 1190.38,-960.464 1181.5,-954.694 1179.84,-961.495"/>
</g>
<!-- client/users/form.js&#45;&gt;client/lib/utils.js -->
<g id="edge70" class="edge"><title>client/users/form.js&#45;&gt;client/lib/utils.js</title>
<path fill="none" stroke="#757575" d="M1069.18,-646.316C1159.58,-642.66 1314.02,-641.906 1357,-676.097 1441.98,-743.7 1448.54,-890.093 1447.8,-945.371"/>
<polygon fill="#757575" stroke="#757575" points="1444.3,-945.366 1447.57,-955.444 1451.3,-945.527 1444.3,-945.366"/>
</g>
<!-- client/users/form.js&#45;&gt;client/lib/context.js -->
<g id="edge68" class="edge"><title>client/users/form.js&#45;&gt;client/lib/context.js</title>
<path fill="none" stroke="#757575" d="M1039.05,-661.664C1064.11,-671.496 1095.69,-688.209 1113,-714.097 1181.03,-815.828 1081.19,-885.214 1149,-987.097 1162.62,-1007.56 1185.78,-1021.96 1206.7,-1031.5"/>
<polygon fill="#757575" stroke="#757575" points="1205.54,-1034.82 1216.11,-1035.56 1208.3,-1028.39 1205.54,-1034.82"/>
</g>
<!-- client/users/form.js&#45;&gt;client/lib/routes.js -->
<g id="edge69" class="edge"><title>client/users/form.js&#45;&gt;client/lib/routes.js</title>
<path fill="none" stroke="#757575" d="M1038.61,-661.681C1063.62,-671.557 1095.33,-688.317 1113,-714.097 1171.99,-800.166 1076.98,-870.593 1149,-946.097 1157.46,-954.969 1168.58,-960.631 1180.37,-964.156"/>
<polygon fill="#757575" stroke="#757575" points="1179.85,-967.631 1190.39,-966.638 1181.53,-960.837 1179.85,-967.631"/>
</g>
<!-- knexfile.js -->
<g id="node34" class="node"><title>knexfile.js</title>
<path fill="none" stroke="#cfffac" d="M1479.83,-281.597C1479.83,-281.597 1416.17,-281.597 1416.17,-281.597 1412.33,-281.597 1408.5,-277.763 1408.5,-273.93 1408.5,-273.93 1408.5,-266.263 1408.5,-266.263 1408.5,-262.43 1412.33,-258.597 1416.17,-258.597 1416.17,-258.597 1479.83,-258.597 1479.83,-258.597 1483.67,-258.597 1487.5,-262.43 1487.5,-266.263 1487.5,-266.263 1487.5,-273.93 1487.5,-273.93 1487.5,-277.763 1483.67,-281.597 1479.83,-281.597"/>
<text text-anchor="middle" x="1448" y="-266.397" font-family="Arial" font-size="14.00" fill="#cfffac">knexfile.js</text>
</g>
<!-- lib/routesInitialData.js -->
<g id="node35" class="node"><title>lib/routesInitialData.js</title>
<path fill="none" stroke="#c6c5fe" d="M591.333,-152.597C591.333,-152.597 456.667,-152.597 456.667,-152.597 452.833,-152.597 449,-148.763 449,-144.93 449,-144.93 449,-137.263 449,-137.263 449,-133.43 452.833,-129.597 456.667,-129.597 456.667,-129.597 591.333,-129.597 591.333,-129.597 595.167,-129.597 599,-133.43 599,-137.263 599,-137.263 599,-144.93 599,-144.93 599,-148.763 595.167,-152.597 591.333,-152.597"/>
<text text-anchor="middle" x="524" y="-137.397" font-family="Arial" font-size="14.00" fill="#c6c5fe">lib/routesInitialData.js</text>
</g>
<!-- lib/routesInitialData.js&#45;&gt;client/lib/routes.js -->
<g id="edge76" class="edge"><title>lib/routesInitialData.js&#45;&gt;client/lib/routes.js</title>
<path fill="none" stroke="#757575" d="M599.126,-137.881C665.95,-136.278 766.68,-137.081 853,-151.097 972.084,-170.433 1038.58,-134.142 1113,-229.097 1211.41,-354.661 1045.02,-825.104 1149,-946.097 1157.21,-955.653 1168.49,-961.582 1180.57,-965.145"/>
<polygon fill="#757575" stroke="#757575" points="1179.86,-968.573 1190.4,-967.52 1181.5,-961.769 1179.86,-968.573"/>
</g>
<!-- lib/utils.js -->
<g id="node36" class="node"><title>lib/utils.js</title>
<path fill="none" stroke="#c6c5fe" d="M1282.33,-281.597C1282.33,-281.597 1223.67,-281.597 1223.67,-281.597 1219.83,-281.597 1216,-277.763 1216,-273.93 1216,-273.93 1216,-266.263 1216,-266.263 1216,-262.43 1219.83,-258.597 1223.67,-258.597 1223.67,-258.597 1282.33,-258.597 1282.33,-258.597 1286.17,-258.597 1290,-262.43 1290,-266.263 1290,-266.263 1290,-273.93 1290,-273.93 1290,-277.763 1286.17,-281.597 1282.33,-281.597"/>
<text text-anchor="middle" x="1253" y="-266.397" font-family="Arial" font-size="14.00" fill="#c6c5fe">lib/utils.js</text>
</g>
<!-- lib/routesInitialData.js&#45;&gt;lib/utils.js -->
<g id="edge77" class="edge"><title>lib/routesInitialData.js&#45;&gt;lib/utils.js</title>
<path fill="none" stroke="#757575" d="M560.11,-129.519C654.469,-100.493 919.478,-32.8283 1113,-118.097 1144.66,-132.046 1207.87,-211.74 1236.85,-249.828"/>
<polygon fill="#757575" stroke="#757575" points="1234.3,-252.264 1243.12,-258.131 1239.88,-248.043 1234.3,-252.264"/>
</g>
<!-- routes/articles.js -->
<g id="node37" class="node"><title>routes/articles.js</title>
<path fill="none" stroke="#c6c5fe" d="M795.833,-306.597C795.833,-306.597 692.167,-306.597 692.167,-306.597 688.333,-306.597 684.5,-302.763 684.5,-298.93 684.5,-298.93 684.5,-291.263 684.5,-291.263 684.5,-287.43 688.333,-283.597 692.167,-283.597 692.167,-283.597 795.833,-283.597 795.833,-283.597 799.667,-283.597 803.5,-287.43 803.5,-291.263 803.5,-291.263 803.5,-298.93 803.5,-298.93 803.5,-302.763 799.667,-306.597 795.833,-306.597"/>
<text text-anchor="middle" x="744" y="-291.397" font-family="Arial" font-size="14.00" fill="#c6c5fe">routes/articles.js</text>
</g>
<!-- lib/routesInitialData.js&#45;&gt;routes/articles.js -->
<g id="edge78" class="edge"><title>lib/routesInitialData.js&#45;&gt;routes/articles.js</title>
<path fill="none" stroke="#757575" d="M530.88,-152.617C544.937,-178.891 583.215,-243.343 635,-274.097 646.894,-281.16 660.702,-285.908 674.389,-289.085"/>
<polygon fill="#757575" stroke="#757575" points="673.803,-292.538 684.304,-291.131 675.218,-285.682 673.803,-292.538"/>
</g>
<!-- routes/joinTables.js -->
<g id="node38" class="node"><title>routes/joinTables.js</title>
<path fill="none" stroke="#cfffac" d="M805.333,-265.597C805.333,-265.597 682.667,-265.597 682.667,-265.597 678.833,-265.597 675,-261.763 675,-257.93 675,-257.93 675,-250.263 675,-250.263 675,-246.43 678.833,-242.597 682.667,-242.597 682.667,-242.597 805.333,-242.597 805.333,-242.597 809.167,-242.597 813,-246.43 813,-250.263 813,-250.263 813,-257.93 813,-257.93 813,-261.763 809.167,-265.597 805.333,-265.597"/>
<text text-anchor="middle" x="744" y="-250.397" font-family="Arial" font-size="14.00" fill="#cfffac">routes/joinTables.js</text>
</g>
<!-- lib/routesInitialData.js&#45;&gt;routes/joinTables.js -->
<g id="edge79" class="edge"><title>lib/routesInitialData.js&#45;&gt;routes/joinTables.js</title>
<path fill="none" stroke="#757575" d="M535.215,-152.864C553.225,-172.793 592.739,-212.979 635,-233.097 644.345,-237.545 654.572,-241.051 664.89,-243.815"/>
<polygon fill="#757575" stroke="#757575" points="664.237,-247.258 674.784,-246.243 665.906,-240.46 664.237,-247.258"/>
</g>
<!-- routes/tags.js -->
<g id="node39" class="node"><title>routes/tags.js</title>
<path fill="none" stroke="#c6c5fe" d="M786.833,-224.597C786.833,-224.597 701.167,-224.597 701.167,-224.597 697.333,-224.597 693.5,-220.763 693.5,-216.93 693.5,-216.93 693.5,-209.263 693.5,-209.263 693.5,-205.43 697.333,-201.597 701.167,-201.597 701.167,-201.597 786.833,-201.597 786.833,-201.597 790.667,-201.597 794.5,-205.43 794.5,-209.263 794.5,-209.263 794.5,-216.93 794.5,-216.93 794.5,-220.763 790.667,-224.597 786.833,-224.597"/>
<text text-anchor="middle" x="744" y="-209.397" font-family="Arial" font-size="14.00" fill="#c6c5fe">routes/tags.js</text>
</g>
<!-- lib/routesInitialData.js&#45;&gt;routes/tags.js -->
<g id="edge80" class="edge"><title>lib/routesInitialData.js&#45;&gt;routes/tags.js</title>
<path fill="none" stroke="#757575" d="M545.881,-152.641C567.562,-164.178 602.757,-181.658 635,-192.097 650.354,-197.067 667.338,-201.045 683.203,-204.143"/>
<polygon fill="#757575" stroke="#757575" points="682.966,-207.659 693.438,-206.053 684.25,-200.777 682.966,-207.659"/>
</g>
<!-- routes/users.js -->
<g id="node40" class="node"><title>routes/users.js</title>
<path fill="none" stroke="#c6c5fe" d="M791.333,-183.597C791.333,-183.597 696.667,-183.597 696.667,-183.597 692.833,-183.597 689,-179.763 689,-175.93 689,-175.93 689,-168.263 689,-168.263 689,-164.43 692.833,-160.597 696.667,-160.597 696.667,-160.597 791.333,-160.597 791.333,-160.597 795.167,-160.597 799,-164.43 799,-168.263 799,-168.263 799,-175.93 799,-175.93 799,-179.763 795.167,-183.597 791.333,-183.597"/>
<text text-anchor="middle" x="744" y="-168.397" font-family="Arial" font-size="14.00" fill="#c6c5fe">routes/users.js</text>
</g>
<!-- lib/routesInitialData.js&#45;&gt;routes/users.js -->
<g id="edge81" class="edge"><title>lib/routesInitialData.js&#45;&gt;routes/users.js</title>
<path fill="none" stroke="#757575" d="M599.109,-151.635C624.929,-155.307 653.669,-159.394 678.633,-162.944"/>
<polygon fill="#757575" stroke="#757575" points="678.326,-166.435 688.719,-164.378 679.312,-159.505 678.326,-166.435"/>
</g>
<!-- lib/utils.js&#45;&gt;lib/sharedUtils.js -->
<g id="edge83" class="edge"><title>lib/utils.js&#45;&gt;lib/sharedUtils.js</title>
<path fill="none" stroke="#757575" d="M1261.82,-282.003C1306.33,-349.78 1527.78,-686.94 1584.33,-773.048"/>
<polygon fill="#757575" stroke="#757575" points="1581.43,-774.999 1589.84,-781.436 1587.28,-771.156 1581.43,-774.999"/>
</g>
<!-- lib/utils.js&#45;&gt;knexfile.js -->
<g id="edge82" class="edge"><title>lib/utils.js&#45;&gt;knexfile.js</title>
<path fill="none" stroke="#757575" d="M1290.3,-270.097C1320.78,-270.097 1364.6,-270.097 1398.15,-270.097"/>
<polygon fill="#757575" stroke="#757575" points="1398.21,-273.597 1408.21,-270.097 1398.21,-266.597 1398.21,-273.597"/>
</g>
<!-- routes/articles.js&#45;&gt;lib/utils.js -->
<g id="edge94" class="edge"><title>routes/articles.js&#45;&gt;lib/utils.js</title>
<path fill="none" stroke="#757575" d="M803.655,-292.204C905.556,-287.18 1113.23,-276.939 1205.74,-272.377"/>
<polygon fill="#757575" stroke="#757575" points="1206.1,-275.864 1215.91,-271.876 1205.75,-268.873 1206.1,-275.864"/>
</g>
<!-- routes/comments.js -->
<g id="node49" class="node"><title>routes/comments.js</title>
<path fill="none" stroke="#c6c5fe" d="M1063.83,-261.597C1063.83,-261.597 938.167,-261.597 938.167,-261.597 934.333,-261.597 930.5,-257.763 930.5,-253.93 930.5,-253.93 930.5,-246.263 930.5,-246.263 930.5,-242.43 934.333,-238.597 938.167,-238.597 938.167,-238.597 1063.83,-238.597 1063.83,-238.597 1067.67,-238.597 1071.5,-242.43 1071.5,-246.263 1071.5,-246.263 1071.5,-253.93 1071.5,-253.93 1071.5,-257.763 1067.67,-261.597 1063.83,-261.597"/>
<text text-anchor="middle" x="1001" y="-246.397" font-family="Arial" font-size="14.00" fill="#c6c5fe">routes/comments.js</text>
</g>
<!-- routes/articles.js&#45;&gt;routes/comments.js -->
<g id="edge95" class="edge"><title>routes/articles.js&#45;&gt;routes/comments.js</title>
<path fill="none" stroke="#757575" d="M803.502,-284.773C839.406,-278.437 885.757,-270.257 924.424,-263.434"/>
<polygon fill="#757575" stroke="#757575" points="925.353,-266.824 934.592,-261.639 924.136,-259.93 925.353,-266.824"/>
</g>
<!-- routes/tags.js&#45;&gt;lib/utils.js -->
<g id="edge109" class="edge"><title>routes/tags.js&#45;&gt;lib/utils.js</title>
<path fill="none" stroke="#757575" d="M794.503,-211.455C865.536,-209.955 1000.25,-210.305 1113,-229.097 1146.71,-234.714 1183.77,-245.912 1211.15,-255.187"/>
<polygon fill="#757575" stroke="#757575" points="1210.17,-258.554 1220.77,-258.503 1212.46,-251.936 1210.17,-258.554"/>
</g>
<!-- routes/users.js&#45;&gt;lib/utils.js -->
<g id="edge110" class="edge"><title>routes/users.js&#45;&gt;lib/utils.js</title>
<path fill="none" stroke="#757575" d="M799.281,-171.997C871.929,-173.081 1004.24,-179.334 1113,-208.097 1152.53,-218.551 1195.06,-239.023 1222.52,-253.58"/>
<polygon fill="#757575" stroke="#757575" points="1221.11,-256.796 1231.58,-258.456 1224.43,-250.633 1221.11,-256.796"/>
</g>
<!-- lib/secure.js -->
<g id="node41" class="node"><title>lib/secure.js</title>
<path fill="none" stroke="#cfffac" d="M1291.33,-133.597C1291.33,-133.597 1214.67,-133.597 1214.67,-133.597 1210.83,-133.597 1207,-129.763 1207,-125.93 1207,-125.93 1207,-118.263 1207,-118.263 1207,-114.43 1210.83,-110.597 1214.67,-110.597 1214.67,-110.597 1291.33,-110.597 1291.33,-110.597 1295.17,-110.597 1299,-114.43 1299,-118.263 1299,-118.263 1299,-125.93 1299,-125.93 1299,-129.763 1295.17,-133.597 1291.33,-133.597"/>
<text text-anchor="middle" x="1253" y="-118.397" font-family="Arial" font-size="14.00" fill="#cfffac">lib/secure.js</text>
</g>
<!-- main/index.js -->
<g id="node42" class="node"><title>main/index.js</title>
<path fill="none" stroke="#c6c5fe" d="M90.3333,-441.597C90.3333,-441.597 7.66667,-441.597 7.66667,-441.597 3.83333,-441.597 7.10543e-15,-437.763 7.10543e-15,-433.93 7.10543e-15,-433.93 7.10543e-15,-426.263 7.10543e-15,-426.263 7.10543e-15,-422.43 3.83333,-418.597 7.66667,-418.597 7.66667,-418.597 90.3333,-418.597 90.3333,-418.597 94.1667,-418.597 98,-422.43 98,-426.263 98,-426.263 98,-433.93 98,-433.93 98,-437.763 94.1667,-441.597 90.3333,-441.597"/>
<text text-anchor="middle" x="49" y="-426.397" font-family="Arial" font-size="14.00" fill="#c6c5fe">main/index.js</text>
</g>
<!-- main/index.js&#45;&gt;lib/utils.js -->
<g id="edge84" class="edge"><title>main/index.js&#45;&gt;lib/utils.js</title>
<path fill="none" stroke="#757575" d="M69.2085,-441.683C115.076,-468.212 235.316,-531.097 344.5,-531.097 344.5,-531.097 344.5,-531.097 745,-531.097 908.797,-531.097 973.442,-596.846 1113,-511.097 1195.83,-460.202 1234.34,-340.358 1247.02,-291.448"/>
<polygon fill="#757575" stroke="#757575" points="1250.44,-292.178 1249.46,-281.629 1243.65,-290.489 1250.44,-292.178"/>
</g>
<!-- models/index.js -->
<g id="node43" class="node"><title>models/index.js</title>
<path fill="none" stroke="#c6c5fe" d="M794.333,-441.597C794.333,-441.597 693.667,-441.597 693.667,-441.597 689.833,-441.597 686,-437.763 686,-433.93 686,-433.93 686,-426.263 686,-426.263 686,-422.43 689.833,-418.597 693.667,-418.597 693.667,-418.597 794.333,-418.597 794.333,-418.597 798.167,-418.597 802,-422.43 802,-426.263 802,-426.263 802,-433.93 802,-433.93 802,-437.763 798.167,-441.597 794.333,-441.597"/>
<text text-anchor="middle" x="744" y="-426.397" font-family="Arial" font-size="14.00" fill="#c6c5fe">models/index.js</text>
</g>
<!-- main/index.js&#45;&gt;models/index.js -->
<g id="edge85" class="edge"><title>main/index.js&#45;&gt;models/index.js</title>
<path fill="none" stroke="#757575" d="M98.1802,-430.097C219.159,-430.097 535.993,-430.097 675.453,-430.097"/>
<polygon fill="#757575" stroke="#757575" points="675.584,-433.597 685.584,-430.097 675.584,-426.597 675.584,-433.597"/>
</g>
<!-- routes/index.js -->
<g id="node44" class="node"><title>routes/index.js</title>
<path fill="none" stroke="#c6c5fe" d="M234.333,-249.597C234.333,-249.597 141.667,-249.597 141.667,-249.597 137.833,-249.597 134,-245.763 134,-241.93 134,-241.93 134,-234.263 134,-234.263 134,-230.43 137.833,-226.597 141.667,-226.597 141.667,-226.597 234.333,-226.597 234.333,-226.597 238.167,-226.597 242,-230.43 242,-234.263 242,-234.263 242,-241.93 242,-241.93 242,-245.763 238.167,-249.597 234.333,-249.597"/>
<text text-anchor="middle" x="188" y="-234.397" font-family="Arial" font-size="14.00" fill="#c6c5fe">routes/index.js</text>
</g>
<!-- main/index.js&#45;&gt;routes/index.js -->
<g id="edge86" class="edge"><title>main/index.js&#45;&gt;routes/index.js</title>
<path fill="none" stroke="#757575" d="M58.3637,-418.375C81.1082,-386.5 144.283,-297.963 172.759,-258.055"/>
<polygon fill="#757575" stroke="#757575" points="175.786,-259.838 178.746,-249.665 170.088,-255.772 175.786,-259.838"/>
</g>
<!-- models/Article.js -->
<g id="node45" class="node"><title>models/Article.js</title>
<path fill="none" stroke="#cfffac" d="M1054.33,-502.597C1054.33,-502.597 947.667,-502.597 947.667,-502.597 943.833,-502.597 940,-498.763 940,-494.93 940,-494.93 940,-487.263 940,-487.263 940,-483.43 943.833,-479.597 947.667,-479.597 947.667,-479.597 1054.33,-479.597 1054.33,-479.597 1058.17,-479.597 1062,-483.43 1062,-487.263 1062,-487.263 1062,-494.93 1062,-494.93 1062,-498.763 1058.17,-502.597 1054.33,-502.597"/>
<text text-anchor="middle" x="1001" y="-487.397" font-family="Arial" font-size="14.00" fill="#cfffac">models/Article.js</text>
</g>
<!-- models/index.js&#45;&gt;models/Article.js -->
<g id="edge90" class="edge"><title>models/index.js&#45;&gt;models/Article.js</title>
<path fill="none" stroke="#757575" d="M783.28,-441.675C812.167,-450.181 852.865,-461.675 889,-470.097 902.218,-473.177 916.402,-476.127 930.062,-478.791"/>
<polygon fill="#757575" stroke="#757575" points="929.415,-482.231 939.895,-480.679 930.735,-475.356 929.415,-482.231"/>
</g>
<!-- models/Comment.js -->
<g id="node46" class="node"><title>models/Comment.js</title>
<path fill="none" stroke="#c6c5fe" d="M1065.33,-461.597C1065.33,-461.597 936.667,-461.597 936.667,-461.597 932.833,-461.597 929,-457.763 929,-453.93 929,-453.93 929,-446.263 929,-446.263 929,-442.43 932.833,-438.597 936.667,-438.597 936.667,-438.597 1065.33,-438.597 1065.33,-438.597 1069.17,-438.597 1073,-442.43 1073,-446.263 1073,-446.263 1073,-453.93 1073,-453.93 1073,-457.763 1069.17,-461.597 1065.33,-461.597"/>
<text text-anchor="middle" x="1001" y="-446.397" font-family="Arial" font-size="14.00" fill="#c6c5fe">models/Comment.js</text>
</g>
<!-- models/index.js&#45;&gt;models/Comment.js -->
<g id="edge91" class="edge"><title>models/index.js&#45;&gt;models/Comment.js</title>
<path fill="none" stroke="#757575" d="M802.227,-434.585C836.6,-437.281 880.882,-440.754 918.828,-443.73"/>
<polygon fill="#757575" stroke="#757575" points="918.594,-447.222 928.837,-444.515 919.142,-440.244 918.594,-447.222"/>
</g>
<!-- models/Tag.js -->
<g id="node47" class="node"><title>models/Tag.js</title>
<path fill="none" stroke="#cfffac" d="M1045.83,-420.597C1045.83,-420.597 956.167,-420.597 956.167,-420.597 952.333,-420.597 948.5,-416.763 948.5,-412.93 948.5,-412.93 948.5,-405.263 948.5,-405.263 948.5,-401.43 952.333,-397.597 956.167,-397.597 956.167,-397.597 1045.83,-397.597 1045.83,-397.597 1049.67,-397.597 1053.5,-401.43 1053.5,-405.263 1053.5,-405.263 1053.5,-412.93 1053.5,-412.93 1053.5,-416.763 1049.67,-420.597 1045.83,-420.597"/>
<text text-anchor="middle" x="1001" y="-405.397" font-family="Arial" font-size="14.00" fill="#cfffac">models/Tag.js</text>
</g>
<!-- models/index.js&#45;&gt;models/Tag.js -->
<g id="edge92" class="edge"><title>models/index.js&#45;&gt;models/Tag.js</title>
<path fill="none" stroke="#757575" d="M802.227,-425.384C842.652,-422.055 896.784,-417.597 938.195,-414.186"/>
<polygon fill="#757575" stroke="#757575" points="938.485,-417.674 948.164,-413.365 937.911,-410.698 938.485,-417.674"/>
</g>
<!-- models/User.js -->
<g id="node48" class="node"><title>models/User.js</title>
<path fill="none" stroke="#c6c5fe" d="M1048.83,-379.597C1048.83,-379.597 953.167,-379.597 953.167,-379.597 949.333,-379.597 945.5,-375.763 945.5,-371.93 945.5,-371.93 945.5,-364.263 945.5,-364.263 945.5,-360.43 949.333,-356.597 953.167,-356.597 953.167,-356.597 1048.83,-356.597 1048.83,-356.597 1052.67,-356.597 1056.5,-360.43 1056.5,-364.263 1056.5,-364.263 1056.5,-371.93 1056.5,-371.93 1056.5,-375.763 1052.67,-379.597 1048.83,-379.597"/>
<text text-anchor="middle" x="1001" y="-364.397" font-family="Arial" font-size="14.00" fill="#c6c5fe">models/User.js</text>
</g>
<!-- models/index.js&#45;&gt;models/User.js -->
<g id="edge93" class="edge"><title>models/index.js&#45;&gt;models/User.js</title>
<path fill="none" stroke="#757575" d="M780.82,-418.505C809.787,-409.41 851.736,-396.862 889,-388.097 903.932,-384.584 920.12,-381.348 935.397,-378.549"/>
<polygon fill="#757575" stroke="#757575" points="936.058,-381.986 945.282,-376.774 934.821,-375.097 936.058,-381.986"/>
</g>
<!-- routes/index.js&#45;&gt;lib/utils.js -->
<g id="edge100" class="edge"><title>routes/index.js&#45;&gt;lib/utils.js</title>
<path fill="none" stroke="#757575" d="M209.134,-249.694C226.717,-259.246 253.231,-272.287 278,-279.097 351.686,-299.354 372.967,-289.416 449,-297.097 531.632,-305.444 552.044,-311.092 635,-315.097 847.348,-325.348 902.212,-324.759 1113,-297.097 1144.23,-292.998 1179.02,-286.238 1205.98,-280.508"/>
<polygon fill="#757575" stroke="#757575" points="1206.87,-283.897 1215.91,-278.37 1205.4,-277.054 1206.87,-283.897"/>
</g>
<!-- routes/index.js&#45;&gt;routes/articles.js -->
<g id="edge101" class="edge"><title>routes/index.js&#45;&gt;routes/articles.js</title>
<path fill="none" stroke="#757575" d="M237.759,-249.689C250.774,-252.458 264.869,-255.167 278,-257.097 417.859,-277.653 583.139,-287.842 674.178,-292.246"/>
<polygon fill="#757575" stroke="#757575" points="674.212,-295.751 684.367,-292.729 674.544,-288.759 674.212,-295.751"/>
</g>
<!-- routes/index.js&#45;&gt;routes/joinTables.js -->
<g id="edge103" class="edge"><title>routes/index.js&#45;&gt;routes/joinTables.js</title>
<path fill="none" stroke="#757575" d="M242.12,-239.631C340.178,-242.463 550.034,-248.524 664.53,-251.83"/>
<polygon fill="#757575" stroke="#757575" points="664.534,-255.332 674.63,-252.122 664.736,-248.335 664.534,-255.332"/>
</g>
<!-- routes/index.js&#45;&gt;routes/tags.js -->
<g id="edge105" class="edge"><title>routes/index.js&#45;&gt;routes/tags.js</title>
<path fill="none" stroke="#757575" d="M242.12,-235.699C345.752,-231.023 574.257,-220.711 683.095,-215.8"/>
<polygon fill="#757575" stroke="#757575" points="683.414,-219.289 693.246,-215.342 683.098,-212.296 683.414,-219.289"/>
</g>
<!-- routes/index.js&#45;&gt;routes/users.js -->
<g id="edge106" class="edge"><title>routes/index.js&#45;&gt;routes/users.js</title>
<path fill="none" stroke="#757575" d="M242.142,-230.054C253.938,-228.347 266.386,-226.606 278,-225.097 420.948,-206.515 589.093,-188.233 678.856,-178.761"/>
<polygon fill="#757575" stroke="#757575" points="679.301,-182.233 688.879,-177.705 678.567,-175.272 679.301,-182.233"/>
</g>
<!-- routes/home.js -->
<g id="node50" class="node"><title>routes/home.js</title>
<path fill="none" stroke="#c6c5fe" d="M392.833,-152.597C392.833,-152.597 298.167,-152.597 298.167,-152.597 294.333,-152.597 290.5,-148.763 290.5,-144.93 290.5,-144.93 290.5,-137.263 290.5,-137.263 290.5,-133.43 294.333,-129.597 298.167,-129.597 298.167,-129.597 392.833,-129.597 392.833,-129.597 396.667,-129.597 400.5,-133.43 400.5,-137.263 400.5,-137.263 400.5,-144.93 400.5,-144.93 400.5,-148.763 396.667,-152.597 392.833,-152.597"/>
<text text-anchor="middle" x="345.5" y="-137.397" font-family="Arial" font-size="14.00" fill="#c6c5fe">routes/home.js</text>
</g>
<!-- routes/index.js&#45;&gt;routes/home.js -->
<g id="edge102" class="edge"><title>routes/index.js&#45;&gt;routes/home.js</title>
<path fill="none" stroke="#757575" d="M201.092,-226.46C217.448,-211.209 248.034,-184.375 278,-167.097 284.796,-163.178 292.295,-159.608 299.735,-156.454"/>
<polygon fill="#757575" stroke="#757575" points="301.107,-159.675 309.07,-152.686 298.487,-153.184 301.107,-159.675"/>
</g>
<!-- routes/session.js -->
<g id="node51" class="node"><title>routes/session.js</title>
<path fill="none" stroke="#c6c5fe" d="M1055.33,-27.5966C1055.33,-27.5966 946.667,-27.5966 946.667,-27.5966 942.833,-27.5966 939,-23.7632 939,-19.9299 939,-19.9299 939,-12.2632 939,-12.2632 939,-8.4299 942.833,-4.59657 946.667,-4.59657 946.667,-4.59657 1055.33,-4.59657 1055.33,-4.59657 1059.17,-4.59657 1063,-8.4299 1063,-12.2632 1063,-12.2632 1063,-19.9299 1063,-19.9299 1063,-23.7632 1059.17,-27.5966 1055.33,-27.5966"/>
<text text-anchor="middle" x="1001" y="-12.3966" font-family="Arial" font-size="14.00" fill="#c6c5fe">routes/session.js</text>
</g>
<!-- routes/index.js&#45;&gt;routes/session.js -->
<g id="edge104" class="edge"><title>routes/index.js&#45;&gt;routes/session.js</title>
<path fill="none" stroke="#757575" d="M194.48,-226.288C206.217,-202.347 236.159,-148.003 278,-120.097 482.155,16.0705 790.917,5.68501 928.954,-7.40838"/>
<polygon fill="#757575" stroke="#757575" points="928.697,-10.9 938.992,-8.3942 929.382,-3.93348 928.697,-10.9"/>
</g>
<!-- models/Comment.js&#45;&gt;lib/utils.js -->
<g id="edge87" class="edge"><title>models/Comment.js&#45;&gt;lib/utils.js</title>
<path fill="none" stroke="#757575" d="M1073.19,-443.881C1086.99,-440.707 1100.91,-436.012 1113,-429.097 1172.92,-394.81 1219.9,-324.941 1240.55,-290.383"/>
<polygon fill="#757575" stroke="#757575" points="1243.64,-292.03 1245.67,-281.631 1237.6,-288.497 1243.64,-292.03"/>
</g>
<!-- models/User.js&#45;&gt;lib/utils.js -->
<g id="edge89" class="edge"><title>models/User.js&#45;&gt;lib/utils.js</title>
<path fill="none" stroke="#757575" d="M1056.71,-358.105C1074.9,-354.042 1095.08,-348.718 1113,-342.097 1153.54,-327.115 1197.35,-302.963 1224.72,-286.815"/>
<polygon fill="#757575" stroke="#757575" points="1226.55,-289.799 1233.35,-281.67 1222.97,-283.787 1226.55,-289.799"/>
</g>
<!-- models/User.js&#45;&gt;lib/secure.js -->
<g id="edge88" class="edge"><title>models/User.js&#45;&gt;lib/secure.js</title>
<path fill="none" stroke="#757575" d="M1016.04,-356.429C1037.48,-338.458 1079.41,-302.667 1113,-270.097 1158.6,-225.875 1208.88,-170.572 1234.66,-141.703"/>
<polygon fill="#757575" stroke="#757575" points="1237.51,-143.76 1241.54,-133.963 1232.28,-139.107 1237.51,-143.76"/>
</g>
<!-- routes/comments.js&#45;&gt;lib/utils.js -->
<g id="edge96" class="edge"><title>routes/comments.js&#45;&gt;lib/utils.js</title>
<path fill="none" stroke="#757575" d="M1071.64,-255.668C1114.43,-259.091 1168.06,-263.381 1205.68,-266.391"/>
<polygon fill="#757575" stroke="#757575" points="1205.59,-269.895 1215.84,-267.204 1206.15,-262.917 1205.59,-269.895"/>
</g>
<!-- routes/home.js&#45;&gt;client/main/app.js -->
<g id="edge97" class="edge"><title>routes/home.js&#45;&gt;client/main/app.js</title>
<path fill="none" stroke="#757575" d="M348.862,-152.67C367.684,-244.918 493.32,-860.642 518.581,-984.439"/>
<polygon fill="#757575" stroke="#757575" points="515.218,-985.465 520.647,-994.564 522.077,-984.066 515.218,-985.465"/>
</g>
<!-- routes/home.js&#45;&gt;lib/routesInitialData.js -->
<g id="edge98" class="edge"><title>routes/home.js&#45;&gt;lib/routesInitialData.js</title>
<path fill="none" stroke="#757575" d="M400.896,-141.097C412.884,-141.097 425.855,-141.097 438.714,-141.097"/>
<polygon fill="#757575" stroke="#757575" points="438.981,-144.597 448.981,-141.097 438.981,-137.597 438.981,-144.597"/>
</g>
<!-- routes/home.js&#45;&gt;lib/utils.js -->
<g id="edge99" class="edge"><title>routes/home.js&#45;&gt;lib/utils.js</title>
<path fill="none" stroke="#757575" d="M383.831,-129.587C438.37,-113.425 543.323,-84.785 635,-74.0966 740.508,-61.7956 1022.16,-18.0331 1113,-73.0966 1142.58,-91.0271 1130.07,-113.149 1149,-142.097 1175.79,-183.059 1212.95,-226.62 1234.53,-250.89"/>
<polygon fill="#757575" stroke="#757575" points="1231.94,-253.239 1241.22,-258.349 1237.15,-248.566 1231.94,-253.239"/>
</g>
<!-- routes/session.js&#45;&gt;lib/utils.js -->
<g id="edge108" class="edge"><title>routes/session.js&#45;&gt;lib/utils.js</title>
<path fill="none" stroke="#757575" d="M1063.27,-19.4649C1081.05,-23.1477 1099.33,-29.9194 1113,-42.0966 1148.27,-73.515 1125.88,-100.907 1149,-142.097 1172.84,-184.553 1210.68,-227.302 1233.25,-251.076"/>
<polygon fill="#757575" stroke="#757575" points="1230.83,-253.601 1240.28,-258.383 1235.87,-248.749 1230.83,-253.601"/>
</g>
<!-- routes/session.js&#45;&gt;lib/secure.js -->
<g id="edge107" class="edge"><title>routes/session.js&#45;&gt;lib/secure.js</title>
<path fill="none" stroke="#757575" d="M1063.18,-27.0607C1079.65,-30.9157 1097.26,-35.88 1113,-42.0966 1155.34,-58.8216 1200.3,-86.8193 1227.26,-104.866"/>
<polygon fill="#757575" stroke="#757575" points="1225.44,-107.861 1235.69,-110.574 1229.37,-102.066 1225.44,-107.861"/>
</g>
</g>
</svg>
