<?xml version="1.0" encoding="UTF-8" standalone="no"?>
<!DOCTYPE svg PUBLIC "-//W3C//DTD SVG 1.1//EN"
 "http://www.w3.org/Graphics/SVG/1.1/DTD/svg11.dtd">
<!-- Generated by graphviz version 2.38.0 (20140413.2041)
 -->
<!-- Title: G Pages: 1 -->
<svg width="1713pt" height="1419pt"
 viewBox="0.00 0.00 1713.20 1419.20" xmlns="http://www.w3.org/2000/svg" xmlns:xlink="http://www.w3.org/1999/xlink">
<g id="graph0" class="graph" transform="scale(1 1) rotate(0) translate(21.6 1397.6)">
<title>G</title>
<polygon fill="#111111" stroke="none" points="-21.6,21.6 -21.6,-1397.6 1691.6,-1397.6 1691.6,21.6 -21.6,21.6"/>
<!-- client/articles/edit.js -->
<g id="node1" class="node"><title>client/articles/edit.js</title>
<path fill="none" stroke="#c6c5fe" d="M806.333,-1214C806.333,-1214 681.667,-1214 681.667,-1214 677.833,-1214 674,-1210.17 674,-1206.33 674,-1206.33 674,-1198.67 674,-1198.67 674,-1194.83 677.833,-1191 681.667,-1191 681.667,-1191 806.333,-1191 806.333,-1191 810.167,-1191 814,-1194.83 814,-1198.67 814,-1198.67 814,-1206.33 814,-1206.33 814,-1210.17 810.167,-1214 806.333,-1214"/>
<text text-anchor="middle" x="744" y="-1198.8" font-family="Arial" font-size="14.00" fill="#c6c5fe">client/articles/edit.js</text>
</g>
<!-- client/articles/form.js -->
<g id="node2" class="node"><title>client/articles/form.js</title>
<path fill="none" stroke="#c6c5fe" d="M1066.33,-1169C1066.33,-1169 935.667,-1169 935.667,-1169 931.833,-1169 928,-1165.17 928,-1161.33 928,-1161.33 928,-1153.67 928,-1153.67 928,-1149.83 931.833,-1146 935.667,-1146 935.667,-1146 1066.33,-1146 1066.33,-1146 1070.17,-1146 1074,-1149.83 1074,-1153.67 1074,-1153.67 1074,-1161.33 1074,-1161.33 1074,-1165.17 1070.17,-1169 1066.33,-1169"/>
<text text-anchor="middle" x="1001" y="-1153.8" font-family="Arial" font-size="14.00" fill="#c6c5fe">client/articles/form.js</text>
</g>
<!-- client/articles/edit.js&#45;&gt;client/articles/form.js -->
<g id="edge1" class="edge"><title>client/articles/edit.js&#45;&gt;client/articles/form.js</title>
<path fill="none" stroke="#757575" d="M810.338,-1190.97C845.272,-1184.8 888.451,-1177.19 924.78,-1170.77"/>
<polygon fill="#757575" stroke="#757575" points="925.593,-1174.18 934.832,-1169 924.376,-1167.29 925.593,-1174.18"/>
</g>
<!-- client/lib/utils.js -->
<g id="node3" class="node"><title>client/lib/utils.js</title>
<path fill="none" stroke="#c6c5fe" d="M1495.33,-880C1495.33,-880 1400.67,-880 1400.67,-880 1396.83,-880 1393,-876.167 1393,-872.333 1393,-872.333 1393,-864.667 1393,-864.667 1393,-860.833 1396.83,-857 1400.67,-857 1400.67,-857 1495.33,-857 1495.33,-857 1499.17,-857 1503,-860.833 1503,-864.667 1503,-864.667 1503,-872.333 1503,-872.333 1503,-876.167 1499.17,-880 1495.33,-880"/>
<text text-anchor="middle" x="1448" y="-864.8" font-family="Arial" font-size="14.00" fill="#c6c5fe">client/lib/utils.js</text>
</g>
<!-- client/articles/edit.js&#45;&gt;client/lib/utils.js -->
<g id="edge2" class="edge"><title>client/articles/edit.js&#45;&gt;client/lib/utils.js</title>
<path fill="none" stroke="#757575" d="M814.155,-1207.85C956.257,-1217.35 1274.67,-1230.52 1357,-1165.5 1401.47,-1130.38 1433.63,-952.42 1443.68,-890.097"/>
<polygon fill="#757575" stroke="#757575" points="1447.14,-890.601 1445.25,-880.177 1440.23,-889.507 1447.14,-890.601"/>
</g>
<!-- client/articles/form.js&#45;&gt;client/lib/utils.js -->
<g id="edge4" class="edge"><title>client/articles/form.js&#45;&gt;client/lib/utils.js</title>
<path fill="none" stroke="#757575" d="M1057.57,-1169.01C1133.62,-1181.38 1270.54,-1191.09 1357,-1123.5 1431.62,-1065.17 1444.52,-940.411 1446.64,-890.148"/>
<polygon fill="#757575" stroke="#757575" points="1450.14,-890.188 1446.96,-880.083 1443.14,-889.968 1450.14,-890.188"/>
</g>
<!-- client/lib/routes.js -->
<g id="node4" class="node"><title>client/lib/routes.js</title>
<path fill="none" stroke="#c6c5fe" d="M1307.83,-900C1307.83,-900 1198.17,-900 1198.17,-900 1194.33,-900 1190.5,-896.167 1190.5,-892.333 1190.5,-892.333 1190.5,-884.667 1190.5,-884.667 1190.5,-880.833 1194.33,-877 1198.17,-877 1198.17,-877 1307.83,-877 1307.83,-877 1311.67,-877 1315.5,-880.833 1315.5,-884.667 1315.5,-884.667 1315.5,-892.333 1315.5,-892.333 1315.5,-896.167 1311.67,-900 1307.83,-900"/>
<text text-anchor="middle" x="1253" y="-884.8" font-family="Arial" font-size="14.00" fill="#c6c5fe">client/lib/routes.js</text>
</g>
<!-- client/articles/form.js&#45;&gt;client/lib/routes.js -->
<g id="edge3" class="edge"><title>client/articles/form.js&#45;&gt;client/lib/routes.js</title>
<path fill="none" stroke="#757575" d="M1012.74,-1145.94C1051.69,-1104.04 1185.72,-959.813 1234.27,-907.579"/>
<polygon fill="#757575" stroke="#757575" points="1237.05,-909.723 1241.3,-900.016 1231.93,-904.958 1237.05,-909.723"/>
</g>
<!-- client/lib/context.js -->
<g id="node18" class="node"><title>client/lib/context.js</title>
<path fill="none" stroke="#cfffac" d="M1662.33,-880C1662.33,-880 1546.67,-880 1546.67,-880 1542.83,-880 1539,-876.167 1539,-872.333 1539,-872.333 1539,-864.667 1539,-864.667 1539,-860.833 1542.83,-857 1546.67,-857 1546.67,-857 1662.33,-857 1662.33,-857 1666.17,-857 1670,-860.833 1670,-864.667 1670,-864.667 1670,-872.333 1670,-872.333 1670,-876.167 1666.17,-880 1662.33,-880"/>
<text text-anchor="middle" x="1604.5" y="-864.8" font-family="Arial" font-size="14.00" fill="#cfffac">client/lib/context.js</text>
</g>
<!-- client/lib/utils.js&#45;&gt;client/lib/context.js -->
<g id="edge21" class="edge"><title>client/lib/utils.js&#45;&gt;client/lib/context.js</title>
<path fill="none" stroke="#757575" d="M1503.04,-868.5C1511.36,-868.5 1520.07,-868.5 1528.74,-868.5"/>
<polygon fill="#757575" stroke="#757575" points="1528.88,-872 1538.88,-868.5 1528.88,-865 1528.88,-872"/>
</g>
<!-- lib/sharedUtils.js -->
<g id="node19" class="node"><title>lib/sharedUtils.js</title>
<path fill="none" stroke="#cfffac" d="M1656.33,-572C1656.33,-572 1552.67,-572 1552.67,-572 1548.83,-572 1545,-568.167 1545,-564.333 1545,-564.333 1545,-556.667 1545,-556.667 1545,-552.833 1548.83,-549 1552.67,-549 1552.67,-549 1656.33,-549 1656.33,-549 1660.17,-549 1664,-552.833 1664,-556.667 1664,-556.667 1664,-564.333 1664,-564.333 1664,-568.167 1660.17,-572 1656.33,-572"/>
<text text-anchor="middle" x="1604.5" y="-556.8" font-family="Arial" font-size="14.00" fill="#cfffac">lib/sharedUtils.js</text>
</g>
<!-- client/lib/utils.js&#45;&gt;lib/sharedUtils.js -->
<g id="edge22" class="edge"><title>client/lib/utils.js&#45;&gt;lib/sharedUtils.js</title>
<path fill="none" stroke="#757575" d="M1454.87,-856.802C1478,-810.682 1563.09,-641.059 1593.01,-581.412"/>
<polygon fill="#757575" stroke="#757575" points="1596.27,-582.717 1597.63,-572.21 1590.01,-579.579 1596.27,-582.717"/>
</g>
<!-- client/lib/routes.js&#45;&gt;client/lib/utils.js -->
<g id="edge20" class="edge"><title>client/lib/routes.js&#45;&gt;client/lib/utils.js</title>
<path fill="none" stroke="#757575" d="M1315.6,-882.117C1337.03,-879.896 1361.11,-877.401 1382.74,-875.159"/>
<polygon fill="#757575" stroke="#757575" points="1383.23,-878.627 1392.82,-874.114 1382.51,-871.664 1383.23,-878.627"/>
</g>
<!-- client/articles/index.js -->
<g id="node5" class="node"><title>client/articles/index.js</title>
<path fill="none" stroke="#c6c5fe" d="M1068.33,-981C1068.33,-981 933.667,-981 933.667,-981 929.833,-981 926,-977.167 926,-973.333 926,-973.333 926,-965.667 926,-965.667 926,-961.833 929.833,-958 933.667,-958 933.667,-958 1068.33,-958 1068.33,-958 1072.17,-958 1076,-961.833 1076,-965.667 1076,-965.667 1076,-973.333 1076,-973.333 1076,-977.167 1072.17,-981 1068.33,-981"/>
<text text-anchor="middle" x="1001" y="-965.8" font-family="Arial" font-size="14.00" fill="#c6c5fe">client/articles/index.js</text>
</g>
<!-- client/articles/index.js&#45;&gt;client/lib/utils.js -->
<g id="edge6" class="edge"><title>client/articles/index.js&#45;&gt;client/lib/utils.js</title>
<path fill="none" stroke="#757575" d="M1076.32,-973.386C1150,-974.689 1264.89,-969.751 1357,-934.5 1384.37,-924.025 1410.82,-902.889 1427.87,-887.346"/>
<polygon fill="#757575" stroke="#757575" points="1430.56,-889.63 1435.46,-880.237 1425.77,-884.523 1430.56,-889.63"/>
</g>
<!-- client/articles/index.js&#45;&gt;client/lib/routes.js -->
<g id="edge5" class="edge"><title>client/articles/index.js&#45;&gt;client/lib/routes.js</title>
<path fill="none" stroke="#757575" d="M1075.4,-957.985C1088.06,-955.327 1101,-952.176 1113,-948.5 1150.99,-936.862 1192.59,-918.046 1220.28,-904.588"/>
<polygon fill="#757575" stroke="#757575" points="1222.04,-907.624 1229.47,-900.071 1218.95,-901.342 1222.04,-907.624"/>
</g>
<!-- client/articles/new.js -->
<g id="node6" class="node"><title>client/articles/new.js</title>
<path fill="none" stroke="#c6c5fe" d="M806.833,-1173C806.833,-1173 681.167,-1173 681.167,-1173 677.333,-1173 673.5,-1169.17 673.5,-1165.33 673.5,-1165.33 673.5,-1157.67 673.5,-1157.67 673.5,-1153.83 677.333,-1150 681.167,-1150 681.167,-1150 806.833,-1150 806.833,-1150 810.667,-1150 814.5,-1153.83 814.5,-1157.67 814.5,-1157.67 814.5,-1165.33 814.5,-1165.33 814.5,-1169.17 810.667,-1173 806.833,-1173"/>
<text text-anchor="middle" x="744" y="-1157.8" font-family="Arial" font-size="14.00" fill="#c6c5fe">client/articles/new.js</text>
</g>
<!-- client/articles/new.js&#45;&gt;client/articles/form.js -->
<g id="edge7" class="edge"><title>client/articles/new.js&#45;&gt;client/articles/form.js</title>
<path fill="none" stroke="#757575" d="M814.68,-1160.41C846.486,-1159.91 884.382,-1159.31 917.593,-1158.79"/>
<polygon fill="#757575" stroke="#757575" points="917.793,-1162.29 927.737,-1158.63 917.683,-1155.29 917.793,-1162.29"/>
</g>
<!-- client/articles/new.js&#45;&gt;client/lib/utils.js -->
<g id="edge8" class="edge"><title>client/articles/new.js&#45;&gt;client/lib/utils.js</title>
<path fill="none" stroke="#757575" d="M811.423,-1149.96C965.35,-1122.99 1335.06,-1056.91 1357,-1040.5 1407.84,-1002.46 1432.6,-927.255 1442.12,-890.188"/>
<polygon fill="#757575" stroke="#757575" points="1445.54,-890.943 1444.51,-880.399 1438.74,-889.285 1445.54,-890.943"/>
</g>
<!-- client/articles/show.js -->
<g id="node7" class="node"><title>client/articles/show.js</title>
<path fill="none" stroke="#c6c5fe" d="M810.833,-600C810.833,-600 677.167,-600 677.167,-600 673.333,-600 669.5,-596.167 669.5,-592.333 669.5,-592.333 669.5,-584.667 669.5,-584.667 669.5,-580.833 673.333,-577 677.167,-577 677.167,-577 810.833,-577 810.833,-577 814.667,-577 818.5,-580.833 818.5,-584.667 818.5,-584.667 818.5,-592.333 818.5,-592.333 818.5,-596.167 814.667,-600 810.833,-600"/>
<text text-anchor="middle" x="744" y="-584.8" font-family="Arial" font-size="14.00" fill="#c6c5fe">client/articles/show.js</text>
</g>
<!-- client/articles/show.js&#45;&gt;client/lib/utils.js -->
<g id="edge11" class="edge"><title>client/articles/show.js&#45;&gt;client/lib/utils.js</title>
<path fill="none" stroke="#757575" d="M818.722,-579.047C962.468,-562.24 1273.46,-534.345 1357,-595.5 1439.14,-655.631 1447.52,-793.274 1447.54,-846.72"/>
<polygon fill="#757575" stroke="#757575" points="1444.04,-846.754 1447.44,-856.789 1451.04,-846.824 1444.04,-846.754"/>
</g>
<!-- client/articles/styles.module.scss -->
<g id="node8" class="node"><title>client/articles/styles.module.scss</title>
<path fill="none" stroke="#cfffac" d="M1105.33,-542C1105.33,-542 896.667,-542 896.667,-542 892.833,-542 889,-538.167 889,-534.333 889,-534.333 889,-526.667 889,-526.667 889,-522.833 892.833,-519 896.667,-519 896.667,-519 1105.33,-519 1105.33,-519 1109.17,-519 1113,-522.833 1113,-526.667 1113,-526.667 1113,-534.333 1113,-534.333 1113,-538.167 1109.17,-542 1105.33,-542"/>
<text text-anchor="middle" x="1001" y="-526.8" font-family="Arial" font-size="14.00" fill="#cfffac">client/articles/styles.module.scss</text>
</g>
<!-- client/articles/show.js&#45;&gt;client/articles/styles.module.scss -->
<g id="edge9" class="edge"><title>client/articles/show.js&#45;&gt;client/articles/styles.module.scss</title>
<path fill="none" stroke="#757575" d="M795.685,-576.972C837.053,-567.563 895.621,-554.241 939.452,-544.272"/>
<polygon fill="#757575" stroke="#757575" points="940.437,-547.637 949.411,-542.006 938.884,-540.812 940.437,-547.637"/>
</g>
<!-- client/comments/form.js -->
<g id="node9" class="node"><title>client/comments/form.js</title>
<path fill="none" stroke="#c6c5fe" d="M1076.83,-660C1076.83,-660 925.167,-660 925.167,-660 921.333,-660 917.5,-656.167 917.5,-652.333 917.5,-652.333 917.5,-644.667 917.5,-644.667 917.5,-640.833 921.333,-637 925.167,-637 925.167,-637 1076.83,-637 1076.83,-637 1080.67,-637 1084.5,-640.833 1084.5,-644.667 1084.5,-644.667 1084.5,-652.333 1084.5,-652.333 1084.5,-656.167 1080.67,-660 1076.83,-660"/>
<text text-anchor="middle" x="1001" y="-644.8" font-family="Arial" font-size="14.00" fill="#c6c5fe">client/comments/form.js</text>
</g>
<!-- client/articles/show.js&#45;&gt;client/comments/form.js -->
<g id="edge10" class="edge"><title>client/articles/show.js&#45;&gt;client/comments/form.js</title>
<path fill="none" stroke="#757575" d="M794.167,-600.069C836.146,-609.946 896.624,-624.176 941.166,-634.657"/>
<polygon fill="#757575" stroke="#757575" points="940.449,-638.083 950.984,-636.967 942.052,-631.269 940.449,-638.083"/>
</g>
<!-- client/comments/form.js&#45;&gt;client/lib/utils.js -->
<g id="edge13" class="edge"><title>client/comments/form.js&#45;&gt;client/lib/utils.js</title>
<path fill="none" stroke="#757575" d="M1073.24,-636.999C1150.27,-628.556 1273.25,-627.118 1357,-685.5 1412.49,-724.18 1435.28,-807.04 1443.27,-846.602"/>
<polygon fill="#757575" stroke="#757575" points="1439.86,-847.363 1445.15,-856.539 1446.73,-846.063 1439.86,-847.363"/>
</g>
<!-- client/comments/form.js&#45;&gt;client/lib/routes.js -->
<g id="edge12" class="edge"><title>client/comments/form.js&#45;&gt;client/lib/routes.js</title>
<path fill="none" stroke="#757575" d="M1084.69,-652.769C1095.08,-656.223 1104.89,-661.262 1113,-668.5 1154.54,-705.583 1120.09,-740.909 1149,-788.5 1169.51,-822.27 1204.12,-852.564 1227.5,-870.736"/>
<polygon fill="#757575" stroke="#757575" points="1225.48,-873.598 1235.55,-876.867 1229.72,-868.027 1225.48,-873.598"/>
</g>
<!-- client/common/home.js -->
<g id="node10" class="node"><title>client/common/home.js</title>
<path fill="none" stroke="#cfffac" d="M817.833,-1091C817.833,-1091 670.167,-1091 670.167,-1091 666.333,-1091 662.5,-1087.17 662.5,-1083.33 662.5,-1083.33 662.5,-1075.67 662.5,-1075.67 662.5,-1071.83 666.333,-1068 670.167,-1068 670.167,-1068 817.833,-1068 817.833,-1068 821.667,-1068 825.5,-1071.83 825.5,-1075.67 825.5,-1075.67 825.5,-1083.33 825.5,-1083.33 825.5,-1087.17 821.667,-1091 817.833,-1091"/>
<text text-anchor="middle" x="744" y="-1075.8" font-family="Arial" font-size="14.00" fill="#cfffac">client/common/home.js</text>
</g>
<!-- client/common/session.js -->
<g id="node11" class="node"><title>client/common/session.js</title>
<path fill="none" stroke="#c6c5fe" d="M1081.33,-940C1081.33,-940 920.667,-940 920.667,-940 916.833,-940 913,-936.167 913,-932.333 913,-932.333 913,-924.667 913,-924.667 913,-920.833 916.833,-917 920.667,-917 920.667,-917 1081.33,-917 1081.33,-917 1085.17,-917 1089,-920.833 1089,-924.667 1089,-924.667 1089,-932.333 1089,-932.333 1089,-936.167 1085.17,-940 1081.33,-940"/>
<text text-anchor="middle" x="1001" y="-924.8" font-family="Arial" font-size="14.00" fill="#c6c5fe">client/common/session.js</text>
</g>
<!-- client/common/session.js&#45;&gt;client/lib/utils.js -->
<g id="edge15" class="edge"><title>client/common/session.js&#45;&gt;client/lib/utils.js</title>
<path fill="none" stroke="#757575" d="M1089.36,-932.268C1162.01,-933.346 1267.6,-930.118 1357,-908.5 1378.17,-903.38 1400.56,-893.449 1417.72,-884.763"/>
<polygon fill="#757575" stroke="#757575" points="1419.41,-887.827 1426.66,-880.105 1416.18,-881.618 1419.41,-887.827"/>
</g>
<!-- client/common/session.js&#45;&gt;client/lib/routes.js -->
<g id="edge14" class="edge"><title>client/common/session.js&#45;&gt;client/lib/routes.js</title>
<path fill="none" stroke="#757575" d="M1073.97,-916.984C1107.31,-911.65 1146.82,-905.329 1180.14,-899.997"/>
<polygon fill="#757575" stroke="#757575" points="1180.95,-903.413 1190.27,-898.377 1179.84,-896.501 1180.95,-903.413"/>
</g>
<!-- client/common/sessionSlice.js -->
<g id="node12" class="node"><title>client/common/sessionSlice.js</title>
<path fill="none" stroke="#c6c5fe" d="M1349.33,-780C1349.33,-780 1156.67,-780 1156.67,-780 1152.83,-780 1149,-776.167 1149,-772.333 1149,-772.333 1149,-764.667 1149,-764.667 1149,-760.833 1152.83,-757 1156.67,-757 1156.67,-757 1349.33,-757 1349.33,-757 1353.17,-757 1357,-760.833 1357,-764.667 1357,-764.667 1357,-772.333 1357,-772.333 1357,-776.167 1353.17,-780 1349.33,-780"/>
<text text-anchor="middle" x="1253" y="-764.8" font-family="Arial" font-size="14.00" fill="#c6c5fe">client/common/sessionSlice.js</text>
</g>
<!-- client/common/sessionSlice.js&#45;&gt;client/lib/utils.js -->
<g id="edge16" class="edge"><title>client/common/sessionSlice.js&#45;&gt;client/lib/utils.js</title>
<path fill="none" stroke="#757575" d="M1315.49,-780.057C1329.55,-783.932 1344.14,-788.984 1357,-795.5 1384.7,-809.535 1411.72,-833.185 1428.8,-849.752"/>
<polygon fill="#757575" stroke="#757575" points="1426.36,-852.254 1435.92,-856.806 1431.28,-847.281 1426.36,-852.254"/>
</g>
<!-- client/common/structure.js -->
<g id="node13" class="node"><title>client/common/structure.js</title>
<path fill="none" stroke="#cfffac" d="M827.333,-1050C827.333,-1050 660.667,-1050 660.667,-1050 656.833,-1050 653,-1046.17 653,-1042.33 653,-1042.33 653,-1034.67 653,-1034.67 653,-1030.83 656.833,-1027 660.667,-1027 660.667,-1027 827.333,-1027 827.333,-1027 831.167,-1027 835,-1030.83 835,-1034.67 835,-1034.67 835,-1042.33 835,-1042.33 835,-1046.17 831.167,-1050 827.333,-1050"/>
<text text-anchor="middle" x="744" y="-1034.8" font-family="Arial" font-size="14.00" fill="#cfffac">client/common/structure.js</text>
</g>
<!-- client/css/fontawesome.min.css -->
<g id="node14" class="node"><title>client/css/fontawesome.min.css</title>
<path fill="none" stroke="#cfffac" d="M845.333,-1376C845.333,-1376 642.667,-1376 642.667,-1376 638.833,-1376 635,-1372.17 635,-1368.33 635,-1368.33 635,-1360.67 635,-1360.67 635,-1356.83 638.833,-1353 642.667,-1353 642.667,-1353 845.333,-1353 845.333,-1353 849.167,-1353 853,-1356.83 853,-1360.67 853,-1360.67 853,-1368.33 853,-1368.33 853,-1372.17 849.167,-1376 845.333,-1376"/>
<text text-anchor="middle" x="744" y="-1360.8" font-family="Arial" font-size="14.00" fill="#cfffac">client/css/fontawesome.min.css</text>
</g>
<!-- client/css/index.scss -->
<g id="node15" class="node"><title>client/css/index.scss</title>
<path fill="none" stroke="#c6c5fe" d="M589.833,-1314C589.833,-1314 458.167,-1314 458.167,-1314 454.333,-1314 450.5,-1310.17 450.5,-1306.33 450.5,-1306.33 450.5,-1298.67 450.5,-1298.67 450.5,-1294.83 454.333,-1291 458.167,-1291 458.167,-1291 589.833,-1291 589.833,-1291 593.667,-1291 597.5,-1294.83 597.5,-1298.67 597.5,-1298.67 597.5,-1306.33 597.5,-1306.33 597.5,-1310.17 593.667,-1314 589.833,-1314"/>
<text text-anchor="middle" x="524" y="-1298.8" font-family="Arial" font-size="14.00" fill="#c6c5fe">client/css/index.scss</text>
</g>
<!-- client/css/index.scss&#45;&gt;client/css/fontawesome.min.css -->
<g id="edge17" class="edge"><title>client/css/index.scss&#45;&gt;client/css/fontawesome.min.css</title>
<path fill="none" stroke="#757575" d="M552.159,-1314.05C574.172,-1323.07 606.161,-1335.38 635,-1343.5 644.515,-1346.18 654.596,-1348.63 664.626,-1350.84"/>
<polygon fill="#757575" stroke="#757575" points="664.107,-1354.31 674.616,-1352.97 665.565,-1347.46 664.107,-1354.31"/>
</g>
<!-- client/css/scssHelpers.scss -->
<g id="node16" class="node"><title>client/css/scssHelpers.scss</title>
<path fill="none" stroke="#cfffac" d="M832.833,-1335C832.833,-1335 655.167,-1335 655.167,-1335 651.333,-1335 647.5,-1331.17 647.5,-1327.33 647.5,-1327.33 647.5,-1319.67 647.5,-1319.67 647.5,-1315.83 651.333,-1312 655.167,-1312 655.167,-1312 832.833,-1312 832.833,-1312 836.667,-1312 840.5,-1315.83 840.5,-1319.67 840.5,-1319.67 840.5,-1327.33 840.5,-1327.33 840.5,-1331.17 836.667,-1335 832.833,-1335"/>
<text text-anchor="middle" x="744" y="-1319.8" font-family="Arial" font-size="14.00" fill="#cfffac">client/css/scssHelpers.scss</text>
</g>
<!-- client/css/index.scss&#45;&gt;client/css/scssHelpers.scss -->
<g id="edge18" class="edge"><title>client/css/index.scss&#45;&gt;client/css/scssHelpers.scss</title>
<path fill="none" stroke="#757575" d="M597.591,-1309.49C610.323,-1310.72 623.805,-1312.02 637.221,-1313.31"/>
<polygon fill="#757575" stroke="#757575" points="637.164,-1316.82 647.454,-1314.3 637.836,-1309.85 637.164,-1316.82"/>
</g>
<!-- client/css/solid.min.css -->
<g id="node17" class="node"><title>client/css/solid.min.css</title>
<path fill="none" stroke="#cfffac" d="M817.333,-1294C817.333,-1294 670.667,-1294 670.667,-1294 666.833,-1294 663,-1290.17 663,-1286.33 663,-1286.33 663,-1278.67 663,-1278.67 663,-1274.83 666.833,-1271 670.667,-1271 670.667,-1271 817.333,-1271 817.333,-1271 821.167,-1271 825,-1274.83 825,-1278.67 825,-1278.67 825,-1286.33 825,-1286.33 825,-1290.17 821.167,-1294 817.333,-1294"/>
<text text-anchor="middle" x="744" y="-1278.8" font-family="Arial" font-size="14.00" fill="#cfffac">client/css/solid.min.css</text>
</g>
<!-- client/css/index.scss&#45;&gt;client/css/solid.min.css -->
<g id="edge19" class="edge"><title>client/css/index.scss&#45;&gt;client/css/solid.min.css</title>
<path fill="none" stroke="#757575" d="M597.591,-1295.84C615.253,-1294.22 634.355,-1292.47 652.726,-1290.78"/>
<polygon fill="#757575" stroke="#757575" points="653.205,-1294.25 662.843,-1289.85 652.565,-1287.28 653.205,-1294.25"/>
</g>
<!-- client/main/app.js -->
<g id="node20" class="node"><title>client/main/app.js</title>
<path fill="none" stroke="#c6c5fe" d="M578.833,-912C578.833,-912 469.167,-912 469.167,-912 465.333,-912 461.5,-908.167 461.5,-904.333 461.5,-904.333 461.5,-896.667 461.5,-896.667 461.5,-892.833 465.333,-889 469.167,-889 469.167,-889 578.833,-889 578.833,-889 582.667,-889 586.5,-892.833 586.5,-896.667 586.5,-896.667 586.5,-904.333 586.5,-904.333 586.5,-908.167 582.667,-912 578.833,-912"/>
<text text-anchor="middle" x="524" y="-896.8" font-family="Arial" font-size="14.00" fill="#c6c5fe">client/main/app.js</text>
</g>
<!-- client/main/app.js&#45;&gt;client/articles/edit.js -->
<g id="edge23" class="edge"><title>client/main/app.js&#45;&gt;client/articles/edit.js</title>
<path fill="none" stroke="#757575" d="M525.729,-912.104C529.105,-955.322 547.07,-1108.21 635,-1181.5 643.425,-1188.52 653.504,-1193.45 664.072,-1196.87"/>
<polygon fill="#757575" stroke="#757575" points="663.308,-1200.29 673.881,-1199.61 665.188,-1193.55 663.308,-1200.29"/>
</g>
<!-- client/main/app.js&#45;&gt;client/lib/utils.js -->
<g id="edge32" class="edge"><title>client/main/app.js&#45;&gt;client/lib/utils.js</title>
<path fill="none" stroke="#757575" d="M525.019,-888.931C525.762,-841.253 535.239,-658.248 635,-567.5 720.657,-489.582 773.934,-522.471 889,-509.5 1096.64,-486.094 1202.27,-414.062 1357,-554.5 1401.27,-594.679 1433.67,-781.665 1443.72,-846.385"/>
<polygon fill="#757575" stroke="#757575" points="1440.32,-847.304 1445.29,-856.662 1447.24,-846.249 1440.32,-847.304"/>
</g>
<!-- client/main/app.js&#45;&gt;client/lib/routes.js -->
<g id="edge31" class="edge"><title>client/main/app.js&#45;&gt;client/lib/routes.js</title>
<path fill="none" stroke="#757575" d="M586.67,-899.482C720.546,-897.272 1037.2,-892.045 1179.98,-889.689"/>
<polygon fill="#757575" stroke="#757575" points="1180.42,-893.182 1190.36,-889.517 1180.31,-886.183 1180.42,-893.182"/>
</g>
<!-- client/main/app.js&#45;&gt;client/articles/index.js -->
<g id="edge24" class="edge"><title>client/main/app.js&#45;&gt;client/articles/index.js</title>
<path fill="none" stroke="#757575" d="M566.522,-912.005C587.006,-917.343 612.161,-923.4 635,-927.5 730.49,-944.643 841.353,-956.241 915.616,-962.832"/>
<polygon fill="#757575" stroke="#757575" points="915.579,-966.342 925.847,-963.729 916.191,-959.369 915.579,-966.342"/>
</g>
<!-- client/main/app.js&#45;&gt;client/articles/new.js -->
<g id="edge25" class="edge"><title>client/main/app.js&#45;&gt;client/articles/new.js</title>
<path fill="none" stroke="#757575" d="M526.559,-912.034C532.488,-951.108 557.367,-1079.43 635,-1140.5 643.448,-1147.15 653.401,-1151.88 663.788,-1155.23"/>
<polygon fill="#757575" stroke="#757575" points="662.846,-1158.6 673.419,-1157.93 664.735,-1151.86 662.846,-1158.6"/>
</g>
<!-- client/main/app.js&#45;&gt;client/articles/show.js -->
<g id="edge26" class="edge"><title>client/main/app.js&#45;&gt;client/articles/show.js</title>
<path fill="none" stroke="#757575" d="M526.323,-888.781C531.641,-847.106 555.176,-704.463 635,-627.5 646.007,-616.887 660.113,-609.133 674.473,-603.477"/>
<polygon fill="#757575" stroke="#757575" points="675.708,-606.753 683.916,-600.054 673.322,-600.172 675.708,-606.753"/>
</g>
<!-- client/main/app.js&#45;&gt;client/common/home.js -->
<g id="edge27" class="edge"><title>client/main/app.js&#45;&gt;client/common/home.js</title>
<path fill="none" stroke="#757575" d="M529.522,-912.361C541.587,-942.282 577.587,-1021.1 635,-1058.5 640.462,-1062.06 646.387,-1065.04 652.554,-1067.54"/>
<polygon fill="#757575" stroke="#757575" points="651.818,-1070.99 662.413,-1071.07 654.183,-1064.4 651.818,-1070.99"/>
</g>
<!-- client/main/app.js&#45;&gt;client/common/session.js -->
<g id="edge28" class="edge"><title>client/main/app.js&#45;&gt;client/common/session.js</title>
<path fill="none" stroke="#757575" d="M586.611,-904.132C666.778,-908.857 807.774,-917.169 902.523,-922.754"/>
<polygon fill="#757575" stroke="#757575" points="902.502,-926.259 912.691,-923.353 902.914,-919.271 902.502,-926.259"/>
</g>
<!-- client/main/app.js&#45;&gt;client/common/sessionSlice.js -->
<g id="edge29" class="edge"><title>client/main/app.js&#45;&gt;client/common/sessionSlice.js</title>
<path fill="none" stroke="#757575" d="M534.101,-888.95C551.259,-868.153 590.675,-824.868 635,-806.5 808.461,-734.619 1033.01,-743.24 1157.8,-755.902"/>
<polygon fill="#757575" stroke="#757575" points="1157.77,-759.418 1168.08,-756.978 1158.5,-752.456 1157.77,-759.418"/>
</g>
<!-- client/main/app.js&#45;&gt;client/common/structure.js -->
<g id="edge30" class="edge"><title>client/main/app.js&#45;&gt;client/common/structure.js</title>
<path fill="none" stroke="#757575" d="M532.172,-912.051C547.693,-935.986 586.909,-990.969 635,-1017.5 638.964,-1019.69 643.12,-1021.65 647.399,-1023.41"/>
<polygon fill="#757575" stroke="#757575" points="646.34,-1026.75 656.933,-1026.95 648.776,-1020.19 646.34,-1026.75"/>
</g>
<!-- client/tags/edit.js -->
<g id="node21" class="node"><title>client/tags/edit.js</title>
<path fill="none" stroke="#c6c5fe" d="M797.333,-1132C797.333,-1132 690.667,-1132 690.667,-1132 686.833,-1132 683,-1128.17 683,-1124.33 683,-1124.33 683,-1116.67 683,-1116.67 683,-1112.83 686.833,-1109 690.667,-1109 690.667,-1109 797.333,-1109 797.333,-1109 801.167,-1109 805,-1112.83 805,-1116.67 805,-1116.67 805,-1124.33 805,-1124.33 805,-1128.17 801.167,-1132 797.333,-1132"/>
<text text-anchor="middle" x="744" y="-1116.8" font-family="Arial" font-size="14.00" fill="#c6c5fe">client/tags/edit.js</text>
</g>
<!-- client/main/app.js&#45;&gt;client/tags/edit.js -->
<g id="edge33" class="edge"><title>client/main/app.js&#45;&gt;client/tags/edit.js</title>
<path fill="none" stroke="#757575" d="M527.758,-912.243C536.593,-947.085 567.645,-1050.5 635,-1099.5 646.124,-1107.59 659.537,-1112.79 673.07,-1116.09"/>
<polygon fill="#757575" stroke="#757575" points="672.408,-1119.53 682.915,-1118.17 673.853,-1112.68 672.408,-1119.53"/>
</g>
<!-- client/tags/index.js -->
<g id="node22" class="node"><title>client/tags/index.js</title>
<path fill="none" stroke="#c6c5fe" d="M1059.33,-860C1059.33,-860 942.667,-860 942.667,-860 938.833,-860 935,-856.167 935,-852.333 935,-852.333 935,-844.667 935,-844.667 935,-840.833 938.833,-837 942.667,-837 942.667,-837 1059.33,-837 1059.33,-837 1063.17,-837 1067,-840.833 1067,-844.667 1067,-844.667 1067,-852.333 1067,-852.333 1067,-856.167 1063.17,-860 1059.33,-860"/>
<text text-anchor="middle" x="1001" y="-844.8" font-family="Arial" font-size="14.00" fill="#c6c5fe">client/tags/index.js</text>
</g>
<!-- client/main/app.js&#45;&gt;client/tags/index.js -->
<g id="edge34" class="edge"><title>client/main/app.js&#45;&gt;client/tags/index.js</title>
<path fill="none" stroke="#757575" d="M556.288,-888.927C578.043,-881.424 607.89,-872.202 635,-867.5 734.122,-850.308 850.463,-847.123 924.678,-847.19"/>
<polygon fill="#757575" stroke="#757575" points="924.854,-850.69 934.864,-847.219 924.874,-843.69 924.854,-850.69"/>
</g>
<!-- client/tags/new.js -->
<g id="node23" class="node"><title>client/tags/new.js</title>
<path fill="none" stroke="#c6c5fe" d="M797.833,-1009C797.833,-1009 690.167,-1009 690.167,-1009 686.333,-1009 682.5,-1005.17 682.5,-1001.33 682.5,-1001.33 682.5,-993.667 682.5,-993.667 682.5,-989.833 686.333,-986 690.167,-986 690.167,-986 797.833,-986 797.833,-986 801.667,-986 805.5,-989.833 805.5,-993.667 805.5,-993.667 805.5,-1001.33 805.5,-1001.33 805.5,-1005.17 801.667,-1009 797.833,-1009"/>
<text text-anchor="middle" x="744" y="-993.8" font-family="Arial" font-size="14.00" fill="#c6c5fe">client/tags/new.js</text>
</g>
<!-- client/main/app.js&#45;&gt;client/tags/new.js -->
<g id="edge35" class="edge"><title>client/main/app.js&#45;&gt;client/tags/new.js</title>
<path fill="none" stroke="#757575" d="M539.395,-912.085C559.591,-927.782 598.018,-955.659 635,-971.5 646.866,-976.583 659.911,-980.786 672.707,-984.22"/>
<polygon fill="#757575" stroke="#757575" points="671.864,-987.618 682.419,-986.699 673.596,-980.835 671.864,-987.618"/>
</g>
<!-- client/users/edit.js -->
<g id="node24" class="node"><title>client/users/edit.js</title>
<path fill="none" stroke="#c6c5fe" d="M801.333,-660C801.333,-660 686.667,-660 686.667,-660 682.833,-660 679,-656.167 679,-652.333 679,-652.333 679,-644.667 679,-644.667 679,-640.833 682.833,-637 686.667,-637 686.667,-637 801.333,-637 801.333,-637 805.167,-637 809,-640.833 809,-644.667 809,-644.667 809,-652.333 809,-652.333 809,-656.167 805.167,-660 801.333,-660"/>
<text text-anchor="middle" x="744" y="-644.8" font-family="Arial" font-size="14.00" fill="#c6c5fe">client/users/edit.js</text>
</g>
<!-- client/main/app.js&#45;&gt;client/users/edit.js -->
<g id="edge36" class="edge"><title>client/main/app.js&#45;&gt;client/users/edit.js</title>
<path fill="none" stroke="#757575" d="M526.76,-888.782C533.2,-850.276 559.206,-726.789 635,-668.5 644.9,-660.887 656.802,-655.86 669.036,-652.594"/>
<polygon fill="#757575" stroke="#757575" points="669.92,-655.983 678.885,-650.337 668.356,-649.159 669.92,-655.983"/>
</g>
<!-- client/users/index.js -->
<g id="node25" class="node"><title>client/users/index.js</title>
<path fill="none" stroke="#c6c5fe" d="M1063.33,-819C1063.33,-819 938.667,-819 938.667,-819 934.833,-819 931,-815.167 931,-811.333 931,-811.333 931,-803.667 931,-803.667 931,-799.833 934.833,-796 938.667,-796 938.667,-796 1063.33,-796 1063.33,-796 1067.17,-796 1071,-799.833 1071,-803.667 1071,-803.667 1071,-811.333 1071,-811.333 1071,-815.167 1067.17,-819 1063.33,-819"/>
<text text-anchor="middle" x="1001" y="-803.8" font-family="Arial" font-size="14.00" fill="#c6c5fe">client/users/index.js</text>
</g>
<!-- client/main/app.js&#45;&gt;client/users/index.js -->
<g id="edge37" class="edge"><title>client/main/app.js&#45;&gt;client/users/index.js</title>
<path fill="none" stroke="#757575" d="M542.814,-888.798C563.881,-875.599 600.46,-854.655 635,-844.5 730.567,-816.402 845.591,-808.826 920.632,-807.184"/>
<polygon fill="#757575" stroke="#757575" points="921.017,-810.678 930.949,-806.99 920.885,-803.679 921.017,-810.678"/>
</g>
<!-- client/users/new.js -->
<g id="node26" class="node"><title>client/users/new.js</title>
<path fill="none" stroke="#c6c5fe" d="M801.833,-701C801.833,-701 686.167,-701 686.167,-701 682.333,-701 678.5,-697.167 678.5,-693.333 678.5,-693.333 678.5,-685.667 678.5,-685.667 678.5,-681.833 682.333,-678 686.167,-678 686.167,-678 801.833,-678 801.833,-678 805.667,-678 809.5,-681.833 809.5,-685.667 809.5,-685.667 809.5,-693.333 809.5,-693.333 809.5,-697.167 805.667,-701 801.833,-701"/>
<text text-anchor="middle" x="744" y="-685.8" font-family="Arial" font-size="14.00" fill="#c6c5fe">client/users/new.js</text>
</g>
<!-- client/main/app.js&#45;&gt;client/users/new.js -->
<g id="edge38" class="edge"><title>client/main/app.js&#45;&gt;client/users/new.js</title>
<path fill="none" stroke="#757575" d="M531.449,-888.987C546.705,-862.514 587.329,-796.305 635,-753.5 656.852,-733.878 685.622,-717.181 707.974,-705.766"/>
<polygon fill="#757575" stroke="#757575" points="709.734,-708.799 717.121,-701.204 706.61,-702.535 709.734,-708.799"/>
</g>
<!-- client/tags/edit.js&#45;&gt;client/lib/utils.js -->
<g id="edge42" class="edge"><title>client/tags/edit.js&#45;&gt;client/lib/utils.js</title>
<path fill="none" stroke="#757575" d="M805.146,-1109.84C957.136,-1082.81 1345.43,-1013.21 1357,-1005.5 1399.77,-977.008 1426.98,-920.541 1439.31,-889.745"/>
<polygon fill="#757575" stroke="#757575" points="1442.59,-890.952 1442.91,-880.362 1436.06,-888.439 1442.59,-890.952"/>
</g>
<!-- client/tags/form.js -->
<g id="node28" class="node"><title>client/tags/form.js</title>
<path fill="none" stroke="#c6c5fe" d="M1057.33,-1022C1057.33,-1022 944.667,-1022 944.667,-1022 940.833,-1022 937,-1018.17 937,-1014.33 937,-1014.33 937,-1006.67 937,-1006.67 937,-1002.83 940.833,-999 944.667,-999 944.667,-999 1057.33,-999 1057.33,-999 1061.17,-999 1065,-1002.83 1065,-1006.67 1065,-1006.67 1065,-1014.33 1065,-1014.33 1065,-1018.17 1061.17,-1022 1057.33,-1022"/>
<text text-anchor="middle" x="1001" y="-1006.8" font-family="Arial" font-size="14.00" fill="#c6c5fe">client/tags/form.js</text>
</g>
<!-- client/tags/edit.js&#45;&gt;client/tags/form.js -->
<g id="edge43" class="edge"><title>client/tags/edit.js&#45;&gt;client/tags/form.js</title>
<path fill="none" stroke="#757575" d="M805.049,-1117.67C821.687,-1114.63 839.005,-1109.15 853,-1099.5 877.977,-1082.28 864.734,-1059.71 889,-1041.5 900.203,-1033.09 913.58,-1026.96 927.104,-1022.5"/>
<polygon fill="#757575" stroke="#757575" points="928.384,-1025.77 936.948,-1019.53 926.364,-1019.07 928.384,-1025.77"/>
</g>
<!-- client/tags/index.js&#45;&gt;client/lib/utils.js -->
<g id="edge47" class="edge"><title>client/tags/index.js&#45;&gt;client/lib/utils.js</title>
<path fill="none" stroke="#757575" d="M1067.18,-851.43C1151.77,-855.231 1298.46,-861.824 1382.64,-865.608"/>
<polygon fill="#757575" stroke="#757575" points="1382.69,-869.113 1392.84,-866.066 1383.01,-862.12 1382.69,-869.113"/>
</g>
<!-- client/tags/index.js&#45;&gt;client/lib/routes.js -->
<g id="edge46" class="edge"><title>client/tags/index.js&#45;&gt;client/lib/routes.js</title>
<path fill="none" stroke="#757575" d="M1067.03,-858.905C1101.66,-864.446 1144.34,-871.275 1179.97,-876.976"/>
<polygon fill="#757575" stroke="#757575" points="1179.88,-880.505 1190.31,-878.629 1180.98,-873.593 1179.88,-880.505"/>
</g>
<!-- client/tags/new.js&#45;&gt;client/tags/form.js -->
<g id="edge48" class="edge"><title>client/tags/new.js&#45;&gt;client/tags/form.js</title>
<path fill="none" stroke="#757575" d="M805.755,-1000.6C841.996,-1002.44 888.257,-1004.8 926.541,-1006.76"/>
<polygon fill="#757575" stroke="#757575" points="926.435,-1010.25 936.6,-1007.27 926.791,-1003.26 926.435,-1010.25"/>
</g>
<!-- client/users/edit.js&#45;&gt;client/lib/utils.js -->
<g id="edge49" class="edge"><title>client/users/edit.js&#45;&gt;client/lib/utils.js</title>
<path fill="none" stroke="#757575" d="M809.088,-637.176C947.761,-614.134 1270.16,-568.882 1357,-629.5 1429.85,-680.356 1443.8,-798.039 1446.42,-846.766"/>
<polygon fill="#757575" stroke="#757575" points="1442.92,-846.991 1446.85,-856.834 1449.92,-846.694 1442.92,-846.991"/>
</g>
<!-- client/users/form.js -->
<g id="node29" class="node"><title>client/users/form.js</title>
<path fill="none" stroke="#c6c5fe" d="M1061.33,-701C1061.33,-701 940.667,-701 940.667,-701 936.833,-701 933,-697.167 933,-693.333 933,-693.333 933,-685.667 933,-685.667 933,-681.833 936.833,-678 940.667,-678 940.667,-678 1061.33,-678 1061.33,-678 1065.17,-678 1069,-681.833 1069,-685.667 1069,-685.667 1069,-693.333 1069,-693.333 1069,-697.167 1065.17,-701 1061.33,-701"/>
<text text-anchor="middle" x="1001" y="-685.8" font-family="Arial" font-size="14.00" fill="#c6c5fe">client/users/form.js</text>
</g>
<!-- client/users/edit.js&#45;&gt;client/users/form.js -->
<g id="edge50" class="edge"><title>client/users/edit.js&#45;&gt;client/users/form.js</title>
<path fill="none" stroke="#757575" d="M809.018,-658.793C843.54,-664.344 886.399,-671.235 922.763,-677.082"/>
<polygon fill="#757575" stroke="#757575" points="922.406,-680.569 932.835,-678.701 923.517,-673.658 922.406,-680.569"/>
</g>
<!-- client/users/index.js&#45;&gt;client/lib/utils.js -->
<g id="edge54" class="edge"><title>client/users/index.js&#45;&gt;client/lib/utils.js</title>
<path fill="none" stroke="#757575" d="M1071.19,-815.237C1142.84,-823.49 1257.96,-837.429 1357,-852.5 1365.34,-853.77 1374.11,-855.203 1382.75,-856.676"/>
<polygon fill="#757575" stroke="#757575" points="1382.37,-860.161 1392.82,-858.417 1383.56,-853.264 1382.37,-860.161"/>
</g>
<!-- client/users/index.js&#45;&gt;client/lib/routes.js -->
<g id="edge53" class="edge"><title>client/users/index.js&#45;&gt;client/lib/routes.js</title>
<path fill="none" stroke="#757575" d="M1071.29,-817.387C1085.24,-820.102 1099.7,-823.446 1113,-827.5 1151.33,-839.186 1193.17,-858.513 1220.83,-872.28"/>
<polygon fill="#757575" stroke="#757575" points="1219.48,-875.522 1229.99,-876.896 1222.63,-869.271 1219.48,-875.522"/>
</g>
<!-- client/users/new.js&#45;&gt;client/users/form.js -->
<g id="edge55" class="edge"><title>client/users/new.js&#45;&gt;client/users/form.js</title>
<path fill="none" stroke="#757575" d="M809.677,-689.5C844.069,-689.5 886.592,-689.5 922.714,-689.5"/>
<polygon fill="#757575" stroke="#757575" points="922.721,-693 932.721,-689.5 922.721,-686 922.721,-693"/>
</g>
<!-- client/main/index.js -->
<g id="node27" class="node"><title>client/main/index.js</title>
<path fill="none" stroke="#c6c5fe" d="M405.333,-1254C405.333,-1254 285.667,-1254 285.667,-1254 281.833,-1254 278,-1250.17 278,-1246.33 278,-1246.33 278,-1238.67 278,-1238.67 278,-1234.83 281.833,-1231 285.667,-1231 285.667,-1231 405.333,-1231 405.333,-1231 409.167,-1231 413,-1234.83 413,-1238.67 413,-1238.67 413,-1246.33 413,-1246.33 413,-1250.17 409.167,-1254 405.333,-1254"/>
<text text-anchor="middle" x="345.5" y="-1238.8" font-family="Arial" font-size="14.00" fill="#c6c5fe">client/main/index.js</text>
</g>
<!-- client/main/index.js&#45;&gt;client/lib/utils.js -->
<g id="edge40" class="edge"><title>client/main/index.js&#45;&gt;client/lib/utils.js</title>
<path fill="none" stroke="#757575" d="M413.147,-1242.5C491.934,-1242.5 627.01,-1242.5 743,-1242.5 743,-1242.5 743,-1242.5 1002,-1242.5 1160.73,-1242.5 1236.51,-1306.83 1357,-1203.5 1405.62,-1161.81 1435.57,-958.145 1444.32,-890.436"/>
<polygon fill="#757575" stroke="#757575" points="1447.84,-890.467 1445.62,-880.107 1440.9,-889.59 1447.84,-890.467"/>
</g>
<!-- client/main/index.js&#45;&gt;client/css/index.scss -->
<g id="edge39" class="edge"><title>client/main/index.js&#45;&gt;client/css/index.scss</title>
<path fill="none" stroke="#757575" d="M380.531,-1254.07C408.733,-1263.66 448.996,-1277.34 479.53,-1287.72"/>
<polygon fill="#757575" stroke="#757575" points="478.479,-1291.06 489.073,-1290.97 480.732,-1284.43 478.479,-1291.06"/>
</g>
<!-- client/main/index.js&#45;&gt;client/main/app.js -->
<g id="edge41" class="edge"><title>client/main/index.js&#45;&gt;client/main/app.js</title>
<path fill="none" stroke="#757575" d="M352.576,-1230.73C378.353,-1180.78 478.876,-985.997 512.2,-921.426"/>
<polygon fill="#757575" stroke="#757575" points="515.474,-922.714 516.95,-912.223 509.254,-919.504 515.474,-922.714"/>
</g>
<!-- client/tags/form.js&#45;&gt;client/lib/utils.js -->
<g id="edge45" class="edge"><title>client/tags/form.js&#45;&gt;client/lib/utils.js</title>
<path fill="none" stroke="#757575" d="M1065.16,-1015.67C1139.3,-1018.96 1263.92,-1015.58 1357,-967.5 1391.83,-949.512 1419.85,-912.221 1434.9,-888.892"/>
<polygon fill="#757575" stroke="#757575" points="1438.04,-890.468 1440.37,-880.131 1432.1,-886.762 1438.04,-890.468"/>
</g>
<!-- client/tags/form.js&#45;&gt;client/lib/routes.js -->
<g id="edge44" class="edge"><title>client/tags/form.js&#45;&gt;client/lib/routes.js</title>
<path fill="none" stroke="#757575" d="M1065.09,-1003.53C1081.13,-1000.43 1098.06,-995.954 1113,-989.5 1160.44,-969.01 1207.33,-929.996 1232.69,-906.914"/>
<polygon fill="#757575" stroke="#757575" points="1235.18,-909.383 1240.14,-900.024 1230.42,-904.245 1235.18,-909.383"/>
</g>
<!-- client/users/form.js&#45;&gt;client/lib/utils.js -->
<g id="edge52" class="edge"><title>client/users/form.js&#45;&gt;client/lib/utils.js</title>
<path fill="none" stroke="#757575" d="M1069.26,-685.993C1144.72,-685.175 1268.17,-693.453 1357,-747.5 1396.44,-771.498 1424.25,-819.849 1437.74,-847.616"/>
<polygon fill="#757575" stroke="#757575" points="1434.64,-849.259 1442.05,-856.831 1440.98,-846.29 1434.64,-849.259"/>
</g>
<!-- client/users/form.js&#45;&gt;client/lib/routes.js -->
<g id="edge51" class="edge"><title>client/users/form.js&#45;&gt;client/lib/routes.js</title>
<path fill="none" stroke="#757575" d="M1069.1,-695.358C1084.73,-699.263 1100.45,-705.527 1113,-715.5 1141.32,-738.003 1127.71,-759.252 1149,-788.5 1172.41,-820.663 1206.67,-851.592 1229.15,-870.324"/>
<polygon fill="#757575" stroke="#757575" points="1227.19,-873.244 1237.14,-876.883 1231.63,-867.833 1227.19,-873.244"/>
</g>
<!-- knexfile.js -->
<g id="node30" class="node"><title>knexfile.js</title>
<path fill="none" stroke="#cfffac" d="M1479.83,-345C1479.83,-345 1416.17,-345 1416.17,-345 1412.33,-345 1408.5,-341.167 1408.5,-337.333 1408.5,-337.333 1408.5,-329.667 1408.5,-329.667 1408.5,-325.833 1412.33,-322 1416.17,-322 1416.17,-322 1479.83,-322 1479.83,-322 1483.67,-322 1487.5,-325.833 1487.5,-329.667 1487.5,-329.667 1487.5,-337.333 1487.5,-337.333 1487.5,-341.167 1483.67,-345 1479.83,-345"/>
<text text-anchor="middle" x="1448" y="-329.8" font-family="Arial" font-size="14.00" fill="#cfffac">knexfile.js</text>
</g>
<!-- lib/routesInitialData.js -->
<g id="node31" class="node"><title>lib/routesInitialData.js</title>
<path fill="none" stroke="#c6c5fe" d="M591.333,-383C591.333,-383 456.667,-383 456.667,-383 452.833,-383 449,-379.167 449,-375.333 449,-375.333 449,-367.667 449,-367.667 449,-363.833 452.833,-360 456.667,-360 456.667,-360 591.333,-360 591.333,-360 595.167,-360 599,-363.833 599,-367.667 599,-367.667 599,-375.333 599,-375.333 599,-379.167 595.167,-383 591.333,-383"/>
<text text-anchor="middle" x="524" y="-367.8" font-family="Arial" font-size="14.00" fill="#c6c5fe">lib/routesInitialData.js</text>
</g>
<!-- lib/routesInitialData.js&#45;&gt;client/lib/routes.js -->
<g id="edge56" class="edge"><title>lib/routesInitialData.js&#45;&gt;client/lib/routes.js</title>
<path fill="none" stroke="#757575" d="M524.798,-383.088C524.633,-431.656 530.924,-620.416 635,-709.5 798.475,-849.427 914.502,-703.42 1113,-786.5 1160.84,-806.522 1207.59,-846.16 1232.81,-869.693"/>
<polygon fill="#757575" stroke="#757575" points="1230.56,-872.378 1240.22,-876.723 1235.38,-867.301 1230.56,-872.378"/>
</g>
<!-- routes/articles.js -->
<g id="node32" class="node"><title>routes/articles.js</title>
<path fill="none" stroke="#c6c5fe" d="M795.833,-285C795.833,-285 692.167,-285 692.167,-285 688.333,-285 684.5,-281.167 684.5,-277.333 684.5,-277.333 684.5,-269.667 684.5,-269.667 684.5,-265.833 688.333,-262 692.167,-262 692.167,-262 795.833,-262 795.833,-262 799.667,-262 803.5,-265.833 803.5,-269.667 803.5,-269.667 803.5,-277.333 803.5,-277.333 803.5,-281.167 799.667,-285 795.833,-285"/>
<text text-anchor="middle" x="744" y="-269.8" font-family="Arial" font-size="14.00" fill="#c6c5fe">routes/articles.js</text>
</g>
<!-- lib/routesInitialData.js&#45;&gt;routes/articles.js -->
<g id="edge57" class="edge"><title>lib/routesInitialData.js&#45;&gt;routes/articles.js</title>
<path fill="none" stroke="#757575" d="M550.864,-359.873C589.951,-342.302 664.157,-308.943 708.029,-289.221"/>
<polygon fill="#757575" stroke="#757575" points="709.484,-292.404 717.17,-285.112 706.614,-286.02 709.484,-292.404"/>
</g>
<!-- routes/tags.js -->
<g id="node33" class="node"><title>routes/tags.js</title>
<path fill="none" stroke="#c6c5fe" d="M786.833,-424C786.833,-424 701.167,-424 701.167,-424 697.333,-424 693.5,-420.167 693.5,-416.333 693.5,-416.333 693.5,-408.667 693.5,-408.667 693.5,-404.833 697.333,-401 701.167,-401 701.167,-401 786.833,-401 786.833,-401 790.667,-401 794.5,-404.833 794.5,-408.667 794.5,-408.667 794.5,-416.333 794.5,-416.333 794.5,-420.167 790.667,-424 786.833,-424"/>
<text text-anchor="middle" x="744" y="-408.8" font-family="Arial" font-size="14.00" fill="#c6c5fe">routes/tags.js</text>
</g>
<!-- lib/routesInitialData.js&#45;&gt;routes/tags.js -->
<g id="edge58" class="edge"><title>lib/routesInitialData.js&#45;&gt;routes/tags.js</title>
<path fill="none" stroke="#757575" d="M586.305,-383.03C616.628,-388.733 653.085,-395.589 683.201,-401.253"/>
<polygon fill="#757575" stroke="#757575" points="682.678,-404.716 693.153,-403.125 683.972,-397.837 682.678,-404.716"/>
</g>
<!-- routes/users.js -->
<g id="node34" class="node"><title>routes/users.js</title>
<path fill="none" stroke="#c6c5fe" d="M791.333,-383C791.333,-383 696.667,-383 696.667,-383 692.833,-383 689,-379.167 689,-375.333 689,-375.333 689,-367.667 689,-367.667 689,-363.833 692.833,-360 696.667,-360 696.667,-360 791.333,-360 791.333,-360 795.167,-360 799,-363.833 799,-367.667 799,-367.667 799,-375.333 799,-375.333 799,-379.167 795.167,-383 791.333,-383"/>
<text text-anchor="middle" x="744" y="-367.8" font-family="Arial" font-size="14.00" fill="#c6c5fe">routes/users.js</text>
</g>
<!-- lib/routesInitialData.js&#45;&gt;routes/users.js -->
<g id="edge59" class="edge"><title>lib/routesInitialData.js&#45;&gt;routes/users.js</title>
<path fill="none" stroke="#757575" d="M599.109,-371.5C624.929,-371.5 653.669,-371.5 678.633,-371.5"/>
<polygon fill="#757575" stroke="#757575" points="678.719,-375 688.719,-371.5 678.719,-368 678.719,-375"/>
</g>
<!-- lib/utils.js -->
<g id="node36" class="node"><title>lib/utils.js</title>
<path fill="none" stroke="#c6c5fe" d="M1282.33,-305C1282.33,-305 1223.67,-305 1223.67,-305 1219.83,-305 1216,-301.167 1216,-297.333 1216,-297.333 1216,-289.667 1216,-289.667 1216,-285.833 1219.83,-282 1223.67,-282 1223.67,-282 1282.33,-282 1282.33,-282 1286.17,-282 1290,-285.833 1290,-289.667 1290,-289.667 1290,-297.333 1290,-297.333 1290,-301.167 1286.17,-305 1282.33,-305"/>
<text text-anchor="middle" x="1253" y="-289.8" font-family="Arial" font-size="14.00" fill="#c6c5fe">lib/utils.js</text>
</g>
<!-- routes/articles.js&#45;&gt;lib/utils.js -->
<g id="edge72" class="edge"><title>routes/articles.js&#45;&gt;lib/utils.js</title>
<path fill="none" stroke="#757575" d="M803.738,-270.536C876.46,-267.512 1004.06,-264.317 1113,-272.5 1144.18,-274.842 1178.97,-280.101 1205.95,-284.769"/>
<polygon fill="#757575" stroke="#757575" points="1205.42,-288.231 1215.88,-286.522 1206.64,-281.337 1205.42,-288.231"/>
</g>
<!-- routes/comments.js -->
<g id="node44" class="node"><title>routes/comments.js</title>
<path fill="none" stroke="#c6c5fe" d="M1063.83,-305C1063.83,-305 938.167,-305 938.167,-305 934.333,-305 930.5,-301.167 930.5,-297.333 930.5,-297.333 930.5,-289.667 930.5,-289.667 930.5,-285.833 934.333,-282 938.167,-282 938.167,-282 1063.83,-282 1063.83,-282 1067.67,-282 1071.5,-285.833 1071.5,-289.667 1071.5,-289.667 1071.5,-297.333 1071.5,-297.333 1071.5,-301.167 1067.67,-305 1063.83,-305"/>
<text text-anchor="middle" x="1001" y="-289.8" font-family="Arial" font-size="14.00" fill="#c6c5fe">routes/comments.js</text>
</g>
<!-- routes/articles.js&#45;&gt;routes/comments.js -->
<g id="edge73" class="edge"><title>routes/articles.js&#45;&gt;routes/comments.js</title>
<path fill="none" stroke="#757575" d="M803.502,-278.088C838.192,-280.809 882.632,-284.295 920.473,-287.263"/>
<polygon fill="#757575" stroke="#757575" points="920.205,-290.752 930.448,-288.045 920.752,-283.774 920.205,-290.752"/>
</g>
<!-- routes/tags.js&#45;&gt;lib/utils.js -->
<g id="edge86" class="edge"><title>routes/tags.js&#45;&gt;lib/utils.js</title>
<path fill="none" stroke="#757575" d="M794.582,-413.925C866.568,-414.547 1003.39,-410.248 1113,-374.5 1157.14,-360.106 1202.55,-330.258 1228.98,-311.091"/>
<polygon fill="#757575" stroke="#757575" points="1231.22,-313.791 1237.19,-305.038 1227.07,-308.158 1231.22,-313.791"/>
</g>
<!-- routes/users.js&#45;&gt;lib/utils.js -->
<g id="edge87" class="edge"><title>routes/users.js&#45;&gt;lib/utils.js</title>
<path fill="none" stroke="#757575" d="M799.045,-373.081C871.43,-374.045 1003.45,-371.749 1113,-347.5 1150.76,-339.142 1191.78,-322.15 1219.4,-309.447"/>
<polygon fill="#757575" stroke="#757575" points="1221.01,-312.56 1228.59,-305.154 1218.05,-306.219 1221.01,-312.56"/>
</g>
<!-- lib/secure.js -->
<g id="node35" class="node"><title>lib/secure.js</title>
<path fill="none" stroke="#cfffac" d="M1291.33,-105C1291.33,-105 1214.67,-105 1214.67,-105 1210.83,-105 1207,-101.167 1207,-97.3333 1207,-97.3333 1207,-89.6667 1207,-89.6667 1207,-85.8333 1210.83,-82 1214.67,-82 1214.67,-82 1291.33,-82 1291.33,-82 1295.17,-82 1299,-85.8333 1299,-89.6667 1299,-89.6667 1299,-97.3333 1299,-97.3333 1299,-101.167 1295.17,-105 1291.33,-105"/>
<text text-anchor="middle" x="1253" y="-89.8" font-family="Arial" font-size="14.00" fill="#cfffac">lib/secure.js</text>
</g>
<!-- lib/utils.js&#45;&gt;lib/sharedUtils.js -->
<g id="edge61" class="edge"><title>lib/utils.js&#45;&gt;lib/sharedUtils.js</title>
<path fill="none" stroke="#757575" d="M1290.15,-285.357C1342.48,-275.772 1439.99,-266.463 1503,-312.5 1578.34,-367.546 1597.33,-488.879 1602.01,-538.597"/>
<polygon fill="#757575" stroke="#757575" points="1598.54,-539.172 1602.86,-548.847 1605.52,-538.591 1598.54,-539.172"/>
</g>
<!-- lib/utils.js&#45;&gt;knexfile.js -->
<g id="edge60" class="edge"><title>lib/utils.js&#45;&gt;knexfile.js</title>
<path fill="none" stroke="#757575" d="M1290.3,-301.024C1320.78,-307.341 1364.6,-316.422 1398.15,-323.376"/>
<polygon fill="#757575" stroke="#757575" points="1397.71,-326.859 1408.21,-325.461 1399.13,-320.004 1397.71,-326.859"/>
</g>
<!-- main/index.js -->
<g id="node37" class="node"><title>main/index.js</title>
<path fill="none" stroke="#c6c5fe" d="M90.3333,-191C90.3333,-191 7.66667,-191 7.66667,-191 3.83333,-191 7.10543e-15,-187.167 7.10543e-15,-183.333 7.10543e-15,-183.333 7.10543e-15,-175.667 7.10543e-15,-175.667 7.10543e-15,-171.833 3.83333,-168 7.66667,-168 7.66667,-168 90.3333,-168 90.3333,-168 94.1667,-168 98,-171.833 98,-175.667 98,-175.667 98,-183.333 98,-183.333 98,-187.167 94.1667,-191 90.3333,-191"/>
<text text-anchor="middle" x="49" y="-175.8" font-family="Arial" font-size="14.00" fill="#c6c5fe">main/index.js</text>
</g>
<!-- main/index.js&#45;&gt;lib/utils.js -->
<g id="edge62" class="edge"><title>main/index.js&#45;&gt;lib/utils.js</title>
<path fill="none" stroke="#757575" d="M98.1981,-181.013C248.847,-186.234 724.009,-206.415 1113,-263.5 1144.3,-268.093 1179.09,-275.604 1206.03,-281.961"/>
<polygon fill="#757575" stroke="#757575" points="1205.41,-285.411 1215.95,-284.332 1207.04,-278.603 1205.41,-285.411"/>
</g>
<!-- models/index.js -->
<g id="node38" class="node"><title>models/index.js</title>
<path fill="none" stroke="#c6c5fe" d="M794.333,-105C794.333,-105 693.667,-105 693.667,-105 689.833,-105 686,-101.167 686,-97.3333 686,-97.3333 686,-89.6667 686,-89.6667 686,-85.8333 689.833,-82 693.667,-82 693.667,-82 794.333,-82 794.333,-82 798.167,-82 802,-85.8333 802,-89.6667 802,-89.6667 802,-97.3333 802,-97.3333 802,-101.167 798.167,-105 794.333,-105"/>
<text text-anchor="middle" x="744" y="-89.8" font-family="Arial" font-size="14.00" fill="#c6c5fe">models/index.js</text>
</g>
<!-- main/index.js&#45;&gt;models/index.js -->
<g id="edge63" class="edge"><title>main/index.js&#45;&gt;models/index.js</title>
<path fill="none" stroke="#757575" d="M98.3561,-171.038C110.011,-169.11 122.437,-167.146 134,-165.5 330.247,-137.561 563.17,-112.177 675.615,-100.41"/>
<polygon fill="#757575" stroke="#757575" points="676.206,-103.867 685.789,-99.348 675.479,-96.9051 676.206,-103.867"/>
</g>
<!-- routes/index.js -->
<g id="node39" class="node"><title>routes/index.js</title>
<path fill="none" stroke="#c6c5fe" d="M234.333,-305C234.333,-305 141.667,-305 141.667,-305 137.833,-305 134,-301.167 134,-297.333 134,-297.333 134,-289.667 134,-289.667 134,-285.833 137.833,-282 141.667,-282 141.667,-282 234.333,-282 234.333,-282 238.167,-282 242,-285.833 242,-289.667 242,-289.667 242,-297.333 242,-297.333 242,-301.167 238.167,-305 234.333,-305"/>
<text text-anchor="middle" x="188" y="-289.8" font-family="Arial" font-size="14.00" fill="#c6c5fe">routes/index.js</text>
</g>
<!-- main/index.js&#45;&gt;routes/index.js -->
<g id="edge64" class="edge"><title>main/index.js&#45;&gt;routes/index.js</title>
<path fill="none" stroke="#757575" d="M63.8902,-191.058C87.7892,-210.945 136.855,-251.773 165.297,-275.441"/>
<polygon fill="#757575" stroke="#757575" points="163.147,-278.205 173.073,-281.911 167.625,-272.824 163.147,-278.205"/>
</g>
<!-- models/Article.js -->
<g id="node40" class="node"><title>models/Article.js</title>
<path fill="none" stroke="#cfffac" d="M1054.33,-23C1054.33,-23 947.667,-23 947.667,-23 943.833,-23 940,-19.1667 940,-15.3333 940,-15.3333 940,-7.66667 940,-7.66667 940,-3.83333 943.833,-0 947.667,-0 947.667,-0 1054.33,-0 1054.33,-0 1058.17,-0 1062,-3.83333 1062,-7.66667 1062,-7.66667 1062,-15.3333 1062,-15.3333 1062,-19.1667 1058.17,-23 1054.33,-23"/>
<text text-anchor="middle" x="1001" y="-7.8" font-family="Arial" font-size="14.00" fill="#cfffac">models/Article.js</text>
</g>
<!-- models/index.js&#45;&gt;models/Article.js -->
<g id="edge68" class="edge"><title>models/index.js&#45;&gt;models/Article.js</title>
<path fill="none" stroke="#757575" d="M767.343,-81.971C795.154,-68.0731 844.432,-44.9172 889,-31.5 902.051,-27.571 916.211,-24.3001 929.912,-21.6197"/>
<polygon fill="#757575" stroke="#757575" points="930.6,-25.0519 939.785,-19.7715 929.312,-18.1714 930.6,-25.0519"/>
</g>
<!-- models/Comment.js -->
<g id="node41" class="node"><title>models/Comment.js</title>
<path fill="none" stroke="#c6c5fe" d="M1065.33,-187C1065.33,-187 936.667,-187 936.667,-187 932.833,-187 929,-183.167 929,-179.333 929,-179.333 929,-171.667 929,-171.667 929,-167.833 932.833,-164 936.667,-164 936.667,-164 1065.33,-164 1065.33,-164 1069.17,-164 1073,-167.833 1073,-171.667 1073,-171.667 1073,-179.333 1073,-179.333 1073,-183.167 1069.17,-187 1065.33,-187"/>
<text text-anchor="middle" x="1001" y="-171.8" font-family="Arial" font-size="14.00" fill="#c6c5fe">models/Comment.js</text>
</g>
<!-- models/index.js&#45;&gt;models/Comment.js -->
<g id="edge69" class="edge"><title>models/index.js&#45;&gt;models/Comment.js</title>
<path fill="none" stroke="#757575" d="M767.877,-105.001C795.817,-118.619 844.822,-141.132 889,-154.5 898.673,-157.427 908.95,-160.027 919.195,-162.312"/>
<polygon fill="#757575" stroke="#757575" points="918.476,-165.737 928.987,-164.407 919.941,-158.892 918.476,-165.737"/>
</g>
<!-- models/Tag.js -->
<g id="node42" class="node"><title>models/Tag.js</title>
<path fill="none" stroke="#cfffac" d="M1045.83,-105C1045.83,-105 956.167,-105 956.167,-105 952.333,-105 948.5,-101.167 948.5,-97.3333 948.5,-97.3333 948.5,-89.6667 948.5,-89.6667 948.5,-85.8333 952.333,-82 956.167,-82 956.167,-82 1045.83,-82 1045.83,-82 1049.67,-82 1053.5,-85.8333 1053.5,-89.6667 1053.5,-89.6667 1053.5,-97.3333 1053.5,-97.3333 1053.5,-101.167 1049.67,-105 1045.83,-105"/>
<text text-anchor="middle" x="1001" y="-89.8" font-family="Arial" font-size="14.00" fill="#cfffac">models/Tag.js</text>
</g>
<!-- models/index.js&#45;&gt;models/Tag.js -->
<g id="edge70" class="edge"><title>models/index.js&#45;&gt;models/Tag.js</title>
<path fill="none" stroke="#757575" d="M802.227,-93.5C842.567,-93.5 896.555,-93.5 937.932,-93.5"/>
<polygon fill="#757575" stroke="#757575" points="938.164,-97.0001 948.164,-93.5 938.164,-90.0001 938.164,-97.0001"/>
</g>
<!-- models/User.js -->
<g id="node43" class="node"><title>models/User.js</title>
<path fill="none" stroke="#c6c5fe" d="M1048.83,-64C1048.83,-64 953.167,-64 953.167,-64 949.333,-64 945.5,-60.1667 945.5,-56.3333 945.5,-56.3333 945.5,-48.6667 945.5,-48.6667 945.5,-44.8333 949.333,-41 953.167,-41 953.167,-41 1048.83,-41 1048.83,-41 1052.67,-41 1056.5,-44.8333 1056.5,-48.6667 1056.5,-48.6667 1056.5,-56.3333 1056.5,-56.3333 1056.5,-60.1667 1052.67,-64 1048.83,-64"/>
<text text-anchor="middle" x="1001" y="-48.8" font-family="Arial" font-size="14.00" fill="#c6c5fe">models/User.js</text>
</g>
<!-- models/index.js&#45;&gt;models/User.js -->
<g id="edge71" class="edge"><title>models/index.js&#45;&gt;models/User.js</title>
<path fill="none" stroke="#757575" d="M802.227,-84.2988C841.703,-77.9517 894.249,-69.5031 935.256,-62.9098"/>
<polygon fill="#757575" stroke="#757575" points="935.833,-66.3621 945.151,-61.3189 934.722,-59.4509 935.833,-66.3621"/>
</g>
<!-- routes/index.js&#45;&gt;routes/articles.js -->
<g id="edge79" class="edge"><title>routes/index.js&#45;&gt;routes/articles.js</title>
<path fill="none" stroke="#757575" d="M242.029,-283.885C253.832,-282.101 266.311,-280.49 278,-279.5 418.207,-267.629 583.028,-269.141 673.966,-271.315"/>
<polygon fill="#757575" stroke="#757575" points="674.061,-274.819 684.145,-271.569 674.236,-267.821 674.061,-274.819"/>
</g>
<!-- routes/index.js&#45;&gt;routes/tags.js -->
<g id="edge82" class="edge"><title>routes/index.js&#45;&gt;routes/tags.js</title>
<path fill="none" stroke="#757575" d="M197.917,-305.068C212.483,-323.002 243.262,-357.058 278,-372.5 412.923,-432.478 591.376,-427.336 683.022,-419.392"/>
<polygon fill="#757575" stroke="#757575" points="683.582,-422.855 693.224,-418.464 682.948,-415.884 683.582,-422.855"/>
</g>
<!-- routes/index.js&#45;&gt;routes/users.js -->
<g id="edge83" class="edge"><title>routes/index.js&#45;&gt;routes/users.js</title>
<path fill="none" stroke="#757575" d="M242.09,-300.766C320.264,-311.49 470.935,-332.26 599,-350.5 625.16,-354.226 653.98,-358.413 678.921,-362.062"/>
<polygon fill="#757575" stroke="#757575" points="678.59,-365.55 688.992,-363.537 679.604,-358.624 678.59,-365.55"/>
</g>
<!-- routes/index.js&#45;&gt;lib/utils.js -->
<g id="edge78" class="edge"><title>routes/index.js&#45;&gt;lib/utils.js</title>
<path fill="none" stroke="#757575" d="M194.476,-305.033C206.206,-328.375 236.136,-381.141 278,-406.5 372.762,-463.901 412.208,-452.5 523,-452.5 523,-452.5 523,-452.5 745,-452.5 909.774,-452.5 961.51,-472.317 1113,-407.5 1164.23,-385.582 1211.61,-338.791 1235.59,-312.479"/>
<polygon fill="#757575" stroke="#757575" points="1238.2,-314.808 1242.26,-305.021 1232.99,-310.141 1238.2,-314.808"/>
</g>
<!-- routes/home.js -->
<g id="node45" class="node"><title>routes/home.js</title>
<path fill="none" stroke="#c6c5fe" d="M392.833,-364C392.833,-364 298.167,-364 298.167,-364 294.333,-364 290.5,-360.167 290.5,-356.333 290.5,-356.333 290.5,-348.667 290.5,-348.667 290.5,-344.833 294.333,-341 298.167,-341 298.167,-341 392.833,-341 392.833,-341 396.667,-341 400.5,-344.833 400.5,-348.667 400.5,-348.667 400.5,-356.333 400.5,-356.333 400.5,-360.167 396.667,-364 392.833,-364"/>
<text text-anchor="middle" x="345.5" y="-348.8" font-family="Arial" font-size="14.00" fill="#c6c5fe">routes/home.js</text>
</g>
<!-- routes/index.js&#45;&gt;routes/home.js -->
<g id="edge80" class="edge"><title>routes/index.js&#45;&gt;routes/home.js</title>
<path fill="none" stroke="#757575" d="M219.351,-305.016C243.675,-314.245 278.008,-327.271 304.562,-337.347"/>
<polygon fill="#757575" stroke="#757575" points="303.369,-340.637 313.96,-340.913 305.852,-334.093 303.369,-340.637"/>
</g>
<!-- routes/session.js -->
<g id="node46" class="node"><title>routes/session.js</title>
<path fill="none" stroke="#c6c5fe" d="M1055.33,-146C1055.33,-146 946.667,-146 946.667,-146 942.833,-146 939,-142.167 939,-138.333 939,-138.333 939,-130.667 939,-130.667 939,-126.833 942.833,-123 946.667,-123 946.667,-123 1055.33,-123 1055.33,-123 1059.17,-123 1063,-126.833 1063,-130.667 1063,-130.667 1063,-138.333 1063,-138.333 1063,-142.167 1059.17,-146 1055.33,-146"/>
<text text-anchor="middle" x="1001" y="-130.8" font-family="Arial" font-size="14.00" fill="#c6c5fe">routes/session.js</text>
</g>
<!-- routes/index.js&#45;&gt;routes/session.js -->
<g id="edge81" class="edge"><title>routes/index.js&#45;&gt;routes/session.js</title>
<path fill="none" stroke="#757575" d="M227.357,-281.916C242.984,-277.408 261.276,-272.401 278,-268.5 547.021,-205.752 617.289,-204.326 889,-154.5 901.892,-152.136 915.631,-149.641 928.893,-147.245"/>
<polygon fill="#757575" stroke="#757575" points="929.7,-150.656 938.92,-145.435 928.457,-143.767 929.7,-150.656"/>
</g>
<!-- models/Comment.js&#45;&gt;lib/utils.js -->
<g id="edge65" class="edge"><title>models/Comment.js&#45;&gt;lib/utils.js</title>
<path fill="none" stroke="#757575" d="M1068.39,-187.002C1083.39,-190.704 1099.01,-195.462 1113,-201.5 1157.64,-220.763 1203.56,-254.367 1229.85,-275.192"/>
<polygon fill="#757575" stroke="#757575" points="1227.99,-278.191 1237.98,-281.725 1232.37,-272.734 1227.99,-278.191"/>
</g>
<!-- models/User.js&#45;&gt;lib/secure.js -->
<g id="edge66" class="edge"><title>models/User.js&#45;&gt;lib/secure.js</title>
<path fill="none" stroke="#757575" d="M1056.55,-61.447C1098.1,-68.2601 1155.06,-77.6012 1196.77,-84.4417"/>
<polygon fill="#757575" stroke="#757575" points="1196.32,-87.9153 1206.76,-86.0799 1197.45,-81.0076 1196.32,-87.9153"/>
</g>
<!-- models/User.js&#45;&gt;lib/utils.js -->
<g id="edge67" class="edge"><title>models/User.js&#45;&gt;lib/utils.js</title>
<path fill="none" stroke="#757575" d="M1056.77,-53.4474C1075.87,-55.9871 1096.61,-61.4343 1113,-72.5 1132.36,-85.5716 1210.69,-220.925 1240.45,-273.124"/>
<polygon fill="#757575" stroke="#757575" points="1237.43,-274.894 1245.42,-281.855 1243.52,-271.432 1237.43,-274.894"/>
</g>
<!-- routes/comments.js&#45;&gt;lib/utils.js -->
<g id="edge74" class="edge"><title>routes/comments.js&#45;&gt;lib/utils.js</title>
<path fill="none" stroke="#757575" d="M1071.64,-293.5C1114.43,-293.5 1168.06,-293.5 1205.68,-293.5"/>
<polygon fill="#757575" stroke="#757575" points="1205.84,-297 1215.84,-293.5 1205.84,-290 1205.84,-297"/>
</g>
<!-- routes/home.js&#45;&gt;client/main/app.js -->
<g id="edge75" class="edge"><title>routes/home.js&#45;&gt;client/main/app.js</title>
<path fill="none" stroke="#757575" d="M350.268,-364.199C372.518,-433.282 486.757,-787.972 516.115,-879.124"/>
<polygon fill="#757575" stroke="#757575" points="512.795,-880.232 519.192,-888.677 519.458,-878.086 512.795,-880.232"/>
</g>
<!-- routes/home.js&#45;&gt;lib/routesInitialData.js -->
<g id="edge76" class="edge"><title>routes/home.js&#45;&gt;lib/routesInitialData.js</title>
<path fill="none" stroke="#757575" d="M400.896,-358.356C412.884,-359.646 425.855,-361.043 438.714,-362.427"/>
<polygon fill="#757575" stroke="#757575" points="438.664,-365.941 448.981,-363.532 439.413,-358.982 438.664,-365.941"/>
</g>
<!-- routes/home.js&#45;&gt;lib/utils.js -->
<g id="edge77" class="edge"><title>routes/home.js&#45;&gt;lib/utils.js</title>
<path fill="none" stroke="#757575" d="M400.525,-351.46C525.935,-348.673 846.433,-339.404 1113,-313.5 1144.09,-310.479 1178.88,-305.471 1205.88,-301.223"/>
<polygon fill="#757575" stroke="#757575" points="1206.5,-304.669 1215.82,-299.638 1205.39,-297.756 1206.5,-304.669"/>
</g>
<!-- routes/session.js&#45;&gt;lib/secure.js -->
<g id="edge84" class="edge"><title>routes/session.js&#45;&gt;lib/secure.js</title>
<path fill="none" stroke="#757575" d="M1063.16,-124.47C1103.98,-117.775 1157.23,-109.043 1196.77,-102.558"/>
<polygon fill="#757575" stroke="#757575" points="1197.46,-105.991 1206.76,-100.919 1196.33,-99.0833 1197.46,-105.991"/>
</g>
<!-- routes/session.js&#45;&gt;lib/utils.js -->
<g id="edge85" class="edge"><title>routes/session.js&#45;&gt;lib/utils.js</title>
<path fill="none" stroke="#757575" d="M1063.23,-138.768C1080.05,-141.712 1097.82,-146.56 1113,-154.5 1168.6,-183.576 1216.03,-242.581 1238.35,-273.53"/>
<polygon fill="#757575" stroke="#757575" points="1235.58,-275.673 1244.21,-281.819 1241.3,-271.633 1235.58,-275.673"/>
</g>
</g>
</svg>
